<?xml version="1.0" encoding="UTF-8" standalone="no"?>
<svg width="937px" height="937px" viewBox="0 0 937 937" version="1.1" xmlns="http://www.w3.org/2000/svg" xmlns:xlink="http://www.w3.org/1999/xlink" xmlns:sketch="http://www.bohemiancoding.com/sketch/ns">
    <!-- Generator: Sketch 3.5.2 (25235) - http://www.bohemiancoding.com/sketch -->
    <title>Oval Logo</title>
    <desc>Created with Sketch.</desc>
    <defs>
        <path id="path-1" d="M0,0.7 L780.002,0.7 L780.002,455.94 L0,455.94"></path>
        <path id="path-3" d="M0,0.7 L780.002,0.7 L780.002,455.94 L0,455.94"></path>
    </defs>
    <g id="Page-1" stroke="none" stroke-width="1" fill="none" fill-rule="evenodd" sketch:type="MSPage">
        <g id="Oval-Logo" sketch:type="MSLayerGroup">
            <circle id="Oval-1" fill="#FFFFFF" sketch:type="MSShapeGroup" cx="468.5" cy="468.5" r="468.5"></circle>
            <g id="Final-Logo" transform="translate(78.000000, 197.000000)">
                <g id="Group-3">
                    <mask id="mask-2" sketch:name="Clip 2" fill="white">
                        <use xlink:href="#path-1"></use>
                    </mask>
                    <g id="Clip-2"></g>
                    <path d="M77.97,382.735 C77.533,385.683 77.096,388.598 76.608,391.489 L76.608,391.308 L76.068,395.643 C76.068,396.126 75.824,396.363 75.35,396.363 C75.35,396.248 75.17,396.363 74.81,396.729 L72.1,397.268 L60.54,397.268 C56.686,397.268 52.846,397.211 48.993,397.089 C45.14,397.089 41.338,397.056 37.612,396.999 C33.888,396.934 30.086,396.909 26.232,396.909 L14.685,396.909 C10.832,396.909 6.979,397.031 3.139,397.268 L3.139,395.824 C5.784,395.708 7.891,395.13 9.445,394.109 C11.012,393.088 12.207,391.759 13.055,390.134 C13.902,388.509 14.467,386.646 14.775,384.54 C15.071,382.433 15.225,380.295 15.225,378.131 L15.225,276.121 C15.225,274.316 15.007,272.904 14.596,271.882 C14.172,270.861 13.594,270.046 12.874,269.442 C12.155,268.845 11.346,268.388 10.434,268.087 C9.535,267.791 8.546,267.522 7.454,267.278 C6.26,267.033 5.091,266.706 3.935,266.282 C2.805,265.865 1.571,265.171 0.235,264.208 C0.005,263.97 -0.06,263.726 0.056,263.482 C0.185,263.244 0.364,263.122 0.596,263.122 L11.616,263.122 C15.585,263.244 20.337,263.334 25.873,263.392 C31.422,263.456 36.714,263.482 41.774,263.482 C45.614,263.482 49.378,263.456 53.052,263.392 C56.725,263.334 60.026,263.244 62.98,263.122 C65.922,263.007 68.452,262.827 70.571,262.583 C72.665,262.346 74.091,262.044 74.81,261.678 C75.529,261.202 75.889,261.382 75.889,262.223 C75.529,265.595 75.016,268.96 74.348,272.332 C73.692,275.703 72.999,278.953 72.279,282.081 C72.164,282.684 72.035,283.198 71.907,283.616 C71.805,284.039 71.676,284.547 71.548,285.151 C71.432,285.51 71.162,285.664 70.751,285.6 C70.314,285.542 70.108,285.33 70.108,284.971 C69.621,279.075 67.643,275.19 64.149,273.327 C60.655,271.458 56.211,270.527 50.791,270.527 L31.473,270.527 L31.473,321.622 L59.82,321.622 C60.655,321.622 61.709,321.352 62.98,320.806 C64.252,320.267 65.536,319.695 66.859,319.092 C67.822,318.61 68.786,318.193 69.749,317.826 C70.713,317.467 71.676,317.171 72.64,316.928 C73.243,316.683 73.538,316.928 73.538,317.647 C73.294,319.573 73.064,321.5 72.819,323.427 C72.575,325.353 72.344,327.216 72.1,329.02 C71.727,331.429 71.394,333.747 71.11,335.975 C70.803,338.204 70.532,340.458 70.289,342.744 C70.289,343.104 70.135,343.348 69.839,343.464 C69.544,343.586 69.261,343.528 69.03,343.284 C68.426,342.687 67.951,341.929 67.592,341.03 C67.219,340.124 66.924,339.193 66.68,338.23 C66.435,337.266 66.14,336.303 65.78,335.34 C65.408,334.376 64.753,333.419 63.789,332.45 C63.07,331.615 61.593,330.947 59.371,330.465 C57.136,329.99 54.734,329.656 52.152,329.476 C49.558,329.29 47.002,329.2 44.472,329.2 L39.051,329.2 L31.653,329.2 L31.653,379.395 C32.86,381.444 34.363,383.184 36.174,384.63 C37.973,386.075 39.925,387.276 42.031,388.239 C44.138,389.202 46.347,389.929 48.633,390.41 C50.919,390.891 53.142,391.129 55.312,391.129 C60.964,391.129 65.87,389.626 70.019,386.614 C74.168,383.608 76.916,379.338 78.227,373.796 L79.498,373.975 C78.895,376.865 78.381,379.788 77.97,382.735" id="Fill-1" fill="#1F3A53" sketch:type="MSShapeGroup" mask="url(#mask-2)"></path>
                </g>
                <path d="M142.14,301.938 C142.024,302.304 141.755,302.452 141.331,302.394 C140.907,302.33 140.701,302.124 140.701,301.758 C140.701,297.789 139.622,294.989 137.451,293.365 C135.281,291.74 132.275,290.93 128.422,290.93 C126.727,290.93 125.134,291.02 123.644,291.2 C122.128,291.38 120.536,291.592 118.854,291.829 C117.658,292.074 116.322,292.253 114.884,292.369 C113.445,292.491 112.109,292.555 110.902,292.555 L110.902,327.941 L135.281,327.941 C136.129,327.941 137.079,327.575 138.171,326.856 C139.263,326.137 140.098,325.411 140.701,324.692 C140.933,324.448 141.215,324.39 141.511,324.506 C141.806,324.628 141.96,324.871 141.96,325.231 C141.729,328.603 141.395,331.885 140.971,335.07 C140.547,338.262 140.033,341.422 139.442,344.549 C139.314,344.908 139.044,345.063 138.62,344.999 C138.209,344.941 137.991,344.729 137.991,344.369 C138.106,340.394 137.118,337.658 135.011,336.155 C132.904,334.653 129.925,333.895 126.084,333.895 L110.902,333.895 L110.902,370.007 C110.902,371.451 111.211,372.954 111.814,374.521 C112.418,376.082 113.266,377.47 114.345,378.67 C115.424,379.878 116.683,380.841 118.134,381.56 C119.585,382.286 121.14,382.645 122.822,382.645 L122.822,384.091 L121.563,384.091 C120.228,384.091 118.969,384.026 117.762,383.911 C116.566,383.789 115.295,383.667 113.985,383.545 C112.649,383.429 111.391,383.339 110.184,383.275 C108.976,383.217 107.781,383.184 106.574,383.184 C105.379,383.184 104.172,383.249 102.965,383.365 C101.757,383.487 100.55,383.608 99.355,383.724 C97.904,383.846 96.491,383.936 95.103,384.001 C93.729,384.058 92.381,384.091 91.045,384.091 L89.966,384.091 C89.606,384.091 89.401,383.879 89.337,383.455 C89.272,383.037 89.427,382.767 89.786,382.645 C91.944,382.286 93.64,381.83 94.847,381.29 C96.042,380.751 96.915,380.025 97.467,379.126 C98.007,378.221 98.302,377.077 98.366,375.69 C98.418,374.309 98.443,372.531 98.443,370.366 L98.443,294.899 C98.443,292.131 97.904,290.417 96.825,289.755 C95.746,289.094 94.487,288.58 93.036,288.221 C92.433,287.983 91.687,287.706 90.788,287.405 C89.876,287.109 88.938,286.659 87.988,286.056 C87.629,285.812 87.5,285.542 87.629,285.241 C87.731,284.939 87.988,284.791 88.348,284.791 C95.926,285.151 103.568,285.33 111.262,285.33 L124.081,285.33 C124.697,285.33 125.313,285.363 125.981,285.42 C126.649,285.484 127.343,285.51 128.063,285.51 C130.837,285.632 133.688,285.632 136.643,285.51 C139.584,285.394 142.14,284.726 144.311,283.526 C144.555,283.288 144.812,283.288 145.12,283.526 C145.428,283.77 145.505,284.065 145.402,284.425 L142.14,301.938" id="Fill-4" fill="#1F3A53" sketch:type="MSShapeGroup"></path>
                <path d="M208.224,301.938 C208.107,302.304 207.826,302.452 207.414,302.394 C206.978,302.33 206.772,302.124 206.772,301.758 C206.772,297.789 205.693,294.989 203.535,293.365 C201.352,291.74 198.346,290.93 194.493,290.93 C192.811,290.93 191.218,291.02 189.715,291.2 C188.199,291.38 186.606,291.592 184.938,291.829 C183.729,292.074 182.394,292.253 180.955,292.369 C179.517,292.491 178.181,292.555 176.986,292.555 L176.986,327.941 L201.352,327.941 C202.199,327.941 203.163,327.575 204.255,326.856 C205.334,326.137 206.182,325.411 206.772,324.692 C207.016,324.448 207.286,324.39 207.594,324.506 C207.89,324.628 208.031,324.871 208.031,325.231 C207.8,328.603 207.466,331.885 207.055,335.07 C206.618,338.262 206.104,341.422 205.514,344.549 C205.385,344.908 205.128,345.063 204.691,344.999 C204.28,344.941 204.074,344.729 204.074,344.369 C204.178,340.394 203.201,337.658 201.096,336.155 C198.988,334.653 196.009,333.895 192.155,333.895 L176.986,333.895 L176.986,370.007 C176.986,371.451 177.282,372.954 177.898,374.521 C178.489,376.082 179.337,377.47 180.416,378.67 C181.495,379.878 182.767,380.841 184.218,381.56 C185.656,382.286 187.224,382.645 188.906,382.645 L188.906,384.091 L187.635,384.091 C186.312,384.091 185.053,384.026 183.846,383.911 C182.65,383.789 181.379,383.667 180.057,383.545 C178.733,383.429 177.462,383.339 176.268,383.275 C175.06,383.217 173.865,383.184 172.658,383.184 C171.45,383.184 170.243,383.249 169.036,383.365 C167.842,383.487 166.634,383.608 165.439,383.724 C163.988,383.846 162.575,383.936 161.188,384.001 C159.813,384.058 158.452,384.091 157.129,384.091 L156.037,384.091 C155.678,384.091 155.473,383.879 155.421,383.455 C155.344,383.037 155.498,382.767 155.857,382.645 C158.028,382.286 159.711,381.83 160.918,381.29 C162.126,380.751 162.999,380.025 163.538,379.126 C164.078,378.221 164.386,377.077 164.438,375.69 C164.502,374.309 164.527,372.531 164.527,370.366 L164.527,294.899 C164.527,292.131 163.988,290.417 162.896,289.755 C161.817,289.094 160.559,288.58 159.12,288.221 C158.504,287.983 157.759,287.706 156.859,287.405 C155.96,287.109 155.022,286.659 154.06,286.056 C153.7,285.812 153.571,285.542 153.7,285.241 C153.815,284.939 154.06,284.791 154.419,284.791 C161.997,285.151 169.652,285.33 177.346,285.33 L190.165,285.33 C190.769,285.33 191.397,285.363 192.065,285.42 C192.721,285.484 193.414,285.51 194.133,285.51 C196.908,285.632 199.76,285.632 202.713,285.51 C205.668,285.394 208.224,284.726 210.395,283.526 C210.625,283.288 210.896,283.288 211.191,283.526 C211.499,283.77 211.589,284.065 211.473,284.425 L208.224,301.938" id="Fill-5" fill="#1F3A53" sketch:type="MSShapeGroup"></path>
                <path d="M308.152,319.817 C306.406,313.922 303.824,308.623 300.382,303.929 C296.965,299.234 292.739,295.439 287.742,292.555 C282.76,289.665 277.005,288.221 270.506,288.221 C264.366,288.221 258.92,289.331 254.168,291.56 C249.416,293.788 245.408,296.858 242.172,300.769 C238.908,304.68 236.417,309.195 234.67,314.307 C232.924,319.426 232.05,324.871 232.05,330.645 C232.05,336.669 232.949,342.622 234.76,348.518 C236.571,354.42 239.242,359.744 242.787,364.496 C246.346,369.255 250.648,373.108 255.709,376.056 C260.757,379.004 266.537,380.474 273.036,380.474 C279.176,380.474 284.583,379.305 289.284,376.955 C293.985,374.611 297.916,371.484 301.102,367.566 C304.299,363.661 306.701,359.115 308.332,353.938 C309.963,348.762 310.76,343.284 310.76,337.511 C310.76,331.615 309.887,325.713 308.152,319.817 L308.152,319.817 Z M318.621,357.098 C315.795,363.058 312.031,368.202 307.344,372.531 C302.643,376.865 297.196,380.237 291.006,382.645 C284.802,385.054 278.264,386.255 271.404,386.255 C265.754,386.255 259.884,384.874 253.809,382.099 C247.72,379.338 242.172,375.722 237.11,371.272 C232.05,366.821 227.863,361.761 224.562,356.102 C221.248,350.445 219.591,344.729 219.591,338.955 C219.591,330.17 220.413,322.611 222.031,316.292 C223.65,309.972 226.27,304.622 229.893,300.223 C233.488,295.83 238.24,292.221 244.149,289.395 C250.045,286.563 257.264,284.245 265.805,282.44 L268.168,282.261 C275.861,281.663 283.016,282.774 289.645,285.6 C296.271,288.432 302.039,292.401 306.984,297.519 C311.916,302.632 315.795,308.681 318.621,315.662 C321.446,322.643 322.859,329.99 322.859,337.69 C322.859,344.671 321.446,351.138 318.621,357.098 L318.621,357.098 Z" id="Fill-6" fill="#1F3A53" sketch:type="MSShapeGroup"></path>
                <path d="M382.714,306.633 C381.814,303.505 380.453,300.679 378.655,298.149 C376.857,295.618 374.622,293.544 371.977,291.919 C369.33,290.295 366.26,289.486 362.767,289.486 C361.328,289.486 359.877,289.575 358.438,289.755 C357,289.935 355.612,290.327 354.276,290.93 L354.276,335.886 C356.332,336.245 358.31,336.489 360.236,336.605 C362.163,336.727 364.154,336.784 366.196,336.784 C372.939,336.784 377.602,334.954 380.196,331.281 C382.778,327.607 384.075,322.521 384.075,316.022 C384.075,312.894 383.613,309.766 382.714,306.633 L382.714,306.633 Z M423.34,385.805 C421.118,386.345 418.922,386.614 416.752,386.614 C413.143,386.614 409.893,385.953 407.002,384.63 C404.112,383.306 401.518,381.624 399.231,379.576 C396.945,377.527 394.813,375.182 392.835,372.531 C390.844,369.885 388.956,367.181 387.145,364.407 C385.463,361.883 383.689,359.384 381.814,356.918 C379.952,354.452 377.91,352.223 375.676,350.239 C373.44,348.248 371.051,346.656 368.457,345.454 C365.862,344.247 362.959,343.643 359.697,343.643 L356.82,343.643 C355.973,343.643 355.072,343.765 354.097,344.01 L354.097,369.647 C354.097,373.135 355.15,376.114 357.256,378.58 C359.363,381.053 362.163,382.466 365.656,382.825 L365.656,384.27 C362.883,384.026 360.159,383.814 357.436,383.635 C354.738,383.455 351.99,383.365 349.229,383.365 C346.467,383.365 343.783,383.487 341.201,383.724 C338.606,383.969 335.936,384.27 333.16,384.63 C332.801,384.752 332.531,384.604 332.338,384.18 C332.158,383.757 332.262,383.429 332.621,383.184 C335.139,381.984 337.245,380.179 338.94,377.771 C340.623,375.363 341.458,372.774 341.458,370.007 L341.458,297.969 C341.458,295.201 340.482,292.767 338.479,290.654 C336.5,288.554 334.123,287.135 331.362,286.416 C331.002,286.294 330.849,286.024 330.9,285.6 C330.964,285.182 331.183,284.971 331.542,284.971 L367.096,284.971 C370.833,284.971 374.506,285.42 378.115,286.326 C381.725,287.225 384.923,288.644 387.685,290.564 C390.446,292.491 392.682,295.021 394.363,298.149 C396.047,301.283 396.895,305.008 396.895,309.343 C396.895,315.123 395.301,320.601 392.115,325.771 C388.918,330.947 385.334,335.404 381.365,339.135 C382.688,340.58 384.127,342.41 385.693,344.639 C387.261,346.867 388.956,349.186 390.754,351.588 C393.4,355.203 396.2,358.903 399.154,362.692 C402.096,366.487 405.191,369.917 408.441,372.986 C411.69,376.056 415.068,378.465 418.563,380.205 C422.043,381.952 425.602,382.588 429.211,382.099 L429.75,383.545 C427.707,384.514 425.563,385.26 423.34,385.805 L423.34,385.805 Z" id="Fill-7" fill="#1F3A53" sketch:type="MSShapeGroup"></path>
                <path d="M505.582,293.634 C505.454,296.768 505.043,299.658 504.324,302.304 C504.195,302.664 503.951,302.844 503.592,302.844 C503.348,302.844 503.168,302.664 503.053,302.304 C502.089,298.091 500.188,295.291 497.362,293.904 C494.537,292.523 491.197,291.829 487.344,291.829 L471.455,291.829 L471.455,369.281 C471.455,372.774 472.547,375.722 474.705,378.131 C476.875,380.539 479.637,382.042 483.016,382.645 C483.375,382.767 483.529,383.037 483.465,383.455 C483.4,383.879 483.195,384.091 482.836,384.091 C479.701,383.846 476.632,383.635 473.626,383.455 C470.621,383.275 467.551,383.184 464.416,383.184 C462.015,383.184 459.664,383.249 457.378,383.365 C455.092,383.487 452.741,383.667 450.34,383.911 C449.979,384.026 449.762,383.846 449.697,383.365 C449.646,382.889 449.8,382.588 450.16,382.466 C452.201,381.984 453.795,381.471 454.938,380.93 C456.08,380.385 456.954,379.698 457.558,378.849 C458.162,378.009 458.521,376.897 458.637,375.511 C458.766,374.13 458.816,372.415 458.816,370.366 L458.816,292.01 L437.161,292.01 C434.271,292.01 431.74,292.972 429.57,294.899 C427.412,296.826 425.846,299.054 424.882,301.578 C424.754,301.938 424.521,302.06 424.162,301.938 C423.79,301.823 423.61,301.578 423.61,301.219 L423.25,298.875 C423.25,296.948 423.494,295.111 423.97,293.365 C424.458,291.624 424.934,289.909 425.422,288.221 C425.666,287.379 425.896,286.563 426.141,285.78 C426.385,285.003 426.615,284.187 426.859,283.346 C427.104,282.742 427.463,282.62 427.951,282.986 C429.75,284.187 431.586,284.939 433.449,285.241 C435.324,285.542 437.341,285.69 439.498,285.69 L497.272,285.69 C498.596,285.69 500.277,285.394 502.333,284.791 C502.809,284.669 503.232,284.547 503.592,284.425 C503.951,284.309 504.375,284.187 504.863,284.065 L505.763,284.791 C505.763,287.559 505.698,290.507 505.582,293.634" id="Fill-8" fill="#1F3A53" sketch:type="MSShapeGroup"></path>
                <path d="M575.905,366.577 C575.842,366.937 575.815,367.296 575.815,367.656 C575.571,370.308 575.302,372.864 574.994,375.331 C574.698,377.804 573.94,380.237 572.746,382.645 C572.861,382.767 572.926,383.005 572.926,383.365 C572.926,383.724 572.566,384.091 571.834,384.45 C567.018,383.969 562.239,383.635 557.486,383.455 C552.734,383.275 547.879,383.184 542.947,383.184 C538.979,383.184 535.01,383.249 531.04,383.365 C527.059,383.487 523.09,383.608 519.121,383.724 C518.518,383.724 517.888,383.757 517.22,383.814 C516.564,383.879 515.936,383.911 515.332,383.911 C514.972,383.911 514.792,383.667 514.792,383.184 C514.792,382.703 514.972,382.466 515.332,382.466 C516.654,382.344 517.861,381.862 518.941,381.02 C520.02,380.179 520.919,379.126 521.65,377.861 C522.37,376.596 522.91,375.241 523.27,373.796 C523.629,372.35 523.809,371.092 523.809,370.007 L523.809,296.524 C523.809,293.634 522.846,291.348 520.919,289.665 C518.992,287.983 516.59,287.077 513.7,286.955 L513.7,285.51 C515.986,285.632 518.222,285.69 520.379,285.69 L527.059,285.69 C533.326,285.69 539.697,285.51 546.196,285.151 C546.557,285.151 546.774,285.363 546.839,285.78 C546.891,286.204 546.749,286.473 546.377,286.596 C543.859,287.077 541.572,288.188 539.518,289.935 C537.475,291.682 536.447,293.814 536.447,296.345 L536.447,363.507 C536.447,368.561 538.041,372.441 541.238,375.151 C544.424,377.861 548.367,379.216 553.068,379.216 C557.641,379.216 561.841,377.919 565.694,375.331 C569.547,372.742 572.502,369.345 574.544,365.132 L575.995,365.492 C575.995,365.851 575.957,366.218 575.905,366.577" id="Fill-9" fill="#1F3A53" sketch:type="MSShapeGroup"></path>
                <path d="M641.348,374.791 C640.988,377.379 640.628,380.057 640.269,382.825 C640.269,383.184 640.024,383.365 639.549,383.365 L639.369,383.545 C638.393,383.911 637.623,384.091 637.019,384.091 C634.244,384.091 631.444,384.058 628.619,384.001 C625.793,383.936 622.992,383.911 620.23,383.911 C617.816,383.911 615.466,383.879 613.18,383.814 C610.894,383.757 608.556,383.724 606.141,383.724 C602.891,383.724 599.616,383.757 596.303,383.814 C592.988,383.879 589.713,383.969 586.463,384.091 L586.463,382.645 C588.274,382.645 589.738,382.254 590.882,381.471 C592.025,380.686 592.898,379.698 593.502,378.49 C594.105,377.289 594.504,375.934 594.684,374.431 C594.863,372.929 594.953,371.394 594.953,369.827 L594.953,294.72 C594.953,292.311 594.375,290.744 593.232,290.025 C592.09,289.305 590.856,288.702 589.533,288.221 C588.814,287.983 588.005,287.706 587.093,287.405 C586.193,287.109 585.256,286.659 584.293,286.056 C584.049,285.812 583.959,285.542 584.023,285.241 C584.088,284.939 584.293,284.791 584.652,284.791 L636.119,284.791 C636.595,284.547 637.108,284.335 637.648,284.155 C638.188,283.975 638.701,283.77 639.177,283.526 C639.78,283.288 640.088,283.526 640.088,284.245 C639.729,287.379 639.267,290.295 638.727,293.005 C638.188,295.715 637.623,298.451 637.019,301.219 C636.891,301.578 636.621,301.733 636.209,301.668 C635.785,301.611 635.567,301.399 635.567,301.039 C635.323,296.826 633.885,294.058 631.238,292.735 C628.593,291.412 625.344,290.744 621.49,290.744 L607.232,290.744 L607.232,327.762 L628.169,327.762 C628.772,327.762 629.557,327.575 630.52,327.216 C631.482,326.856 632.446,326.496 633.41,326.137 C634.732,325.411 636.055,324.871 637.379,324.506 C637.982,324.268 638.277,324.506 638.277,325.231 C638.162,326.676 638.008,328.243 637.828,329.926 C637.648,331.615 637.442,333.176 637.199,334.62 C636.955,336.065 636.775,337.568 636.659,339.135 C636.531,340.696 636.351,342.205 636.119,343.643 C636.119,344.01 635.965,344.247 635.657,344.369 C635.361,344.492 635.092,344.433 634.848,344.189 C634.244,343.586 633.859,342.989 633.68,342.385 C633.5,341.781 633.281,341.119 633.05,340.394 C632.806,339.675 632.562,338.955 632.318,338.23 C632.074,337.511 631.662,336.849 631.059,336.245 C630.455,335.641 629.338,335.192 627.719,334.89 C626.088,334.588 624.342,334.351 622.479,334.171 C620.617,333.985 618.779,333.895 616.981,333.895 L612.82,333.895 L607.412,333.895 L607.412,371.092 C609.211,373.738 611.767,375.755 615.08,377.136 C618.395,378.522 621.605,379.216 624.74,379.216 C628.953,379.216 632.536,378.105 635.478,375.877 C638.432,373.648 640.384,370.488 641.348,366.397 L642.799,366.757 C642.195,369.525 641.707,372.203 641.348,374.791" id="Fill-10" fill="#1F3A53" sketch:type="MSShapeGroup"></path>
                <path d="M699.018,369.467 C696.797,372.954 693.971,375.934 690.541,378.4 C687.111,380.866 683.31,382.793 679.161,384.18 C675.012,385.561 671.068,386.255 667.332,386.255 C665.533,386.255 663.633,386.049 661.654,385.625 C659.663,385.201 657.852,384.514 656.234,383.545 C654.603,382.588 653.279,381.354 652.266,379.846 C651.237,378.343 650.724,376.448 650.724,374.155 C650.724,372.717 650.878,371.272 651.174,369.827 C651.481,368.382 651.751,367.001 651.995,365.672 L652.895,361.337 C652.895,360.977 653.139,360.797 653.613,360.797 C654.089,360.797 654.333,360.977 654.333,361.337 L654.333,364.047 C654.333,366.577 654.885,368.805 655.965,370.726 C657.043,372.652 658.43,374.309 660.113,375.69 C661.795,377.077 663.748,378.105 665.982,378.76 C668.205,379.428 670.465,379.756 672.752,379.756 C674.922,379.756 677.145,379.395 679.431,378.67 C681.717,377.951 683.798,376.897 685.66,375.511 C687.522,374.13 689.064,372.441 690.271,370.456 C691.466,368.471 692.069,366.275 692.069,363.867 C692.069,361.581 691.53,359.326 690.451,357.098 C689.359,354.869 687.921,352.616 686.109,350.329 C684.312,348.043 682.256,345.757 679.971,343.464 C677.684,341.184 675.346,338.891 672.932,336.605 C670.401,334.197 667.884,331.763 665.354,329.29 C662.822,326.83 660.602,324.3 658.674,321.712 C656.748,319.124 655.181,316.504 653.973,313.858 C652.766,311.212 652.175,308.501 652.175,305.734 C652.175,301.642 653.318,298.123 655.604,295.169 C657.891,292.221 660.717,289.813 664.082,287.95 C667.46,286.082 671.133,284.701 675.102,283.795 C679.071,282.896 682.744,282.44 686.109,282.44 C690.926,282.44 695.319,283.044 699.288,284.245 C699.647,284.489 699.84,284.726 699.84,284.971 C699.352,290.866 698.633,296.948 697.67,303.203 C697.541,303.563 697.311,303.749 696.95,303.749 C696.591,303.749 696.347,303.563 696.219,303.203 C695.255,298.99 693.432,295.381 690.721,292.369 C688.011,289.364 684.428,287.861 679.971,287.861 C675.397,287.861 671.583,289.331 668.514,292.279 C665.443,295.233 663.902,298.99 663.902,303.563 C663.902,305.977 664.416,308.2 665.443,310.248 C666.458,312.297 667.794,314.282 669.412,316.201 C671.043,318.128 672.932,320.029 675.102,321.892 C677.273,323.761 679.495,325.655 681.781,327.575 C684.312,329.624 686.803,331.763 689.27,333.985 C691.735,336.213 693.932,338.564 695.858,341.03 C697.785,343.496 699.352,346.116 700.56,348.884 C701.754,351.652 702.357,354.658 702.357,357.907 C702.357,362.127 701.254,365.973 699.018,369.467" id="Fill-11" fill="#1F3A53" sketch:type="MSShapeGroup"></path>
                <path d="M775.494,377.501 C772.475,382.132 768.66,386.139 764.023,389.505 C759.387,392.876 754.275,395.464 748.674,397.268 C743.074,399.073 737.757,399.979 732.696,399.979 C730.166,399.979 727.584,399.703 724.938,399.162 C722.292,398.623 719.877,397.719 717.72,396.453 C715.549,395.194 713.776,393.569 712.389,391.579 C711.002,389.595 710.309,387.096 710.309,384.091 C710.309,381.92 710.514,379.878 710.938,377.951 C711.361,376.024 711.811,374.155 712.299,372.35 C712.543,371.394 712.749,370.398 712.929,369.371 C713.108,368.349 713.314,367.361 713.559,366.397 C713.674,366.031 713.956,365.884 714.38,365.941 C714.791,366.006 715.01,366.218 715.01,366.577 L715.01,368.561 C715.01,372.293 715.639,375.6 716.897,378.49 C718.17,381.38 719.941,383.789 722.229,385.716 C724.514,387.641 727.16,389.112 730.166,390.134 C733.184,391.161 736.485,391.669 740.107,391.669 C743.113,391.669 746.183,391.161 749.304,390.134 C752.438,389.112 755.264,387.674 757.795,385.805 C760.324,383.936 762.393,381.65 764.023,378.94 C765.643,376.236 766.465,373.257 766.465,370.007 C766.465,367.001 765.707,363.899 764.203,360.707 C762.701,357.522 760.709,354.362 758.244,351.228 C755.777,348.1 752.977,344.973 749.855,341.839 C746.723,338.711 743.537,335.641 740.287,332.636 C736.909,329.387 733.544,326.105 730.166,322.791 C726.801,319.483 723.795,316.086 721.148,312.593 C718.49,309.105 716.332,305.554 714.65,301.938 C712.955,298.329 712.119,294.72 712.119,291.11 C712.119,285.575 713.674,280.816 716.808,276.846 C719.941,272.871 723.795,269.622 728.367,267.098 C732.939,264.567 737.898,262.737 743.268,261.588 C748.61,260.445 753.58,259.873 758.154,259.873 C764.408,259.873 770.316,260.657 775.854,262.223 C776.213,262.223 776.393,262.461 776.393,262.943 C776.033,266.796 775.635,270.649 775.211,274.496 C774.801,278.349 774.285,282.203 773.682,286.056 C773.682,286.294 773.656,286.506 773.592,286.685 C773.527,286.865 773.502,287.077 773.502,287.315 C773.502,287.681 773.285,287.887 772.873,287.95 C772.449,288.009 772.18,287.861 772.051,287.494 C771.447,284.611 770.523,281.901 769.264,279.37 C767.992,276.846 766.426,274.65 764.563,272.782 C762.701,270.919 760.529,269.416 758.064,268.266 C755.598,267.13 752.861,266.552 749.855,266.552 C746.723,266.552 743.807,267.098 741.096,268.177 C738.387,269.262 736.035,270.739 734.058,272.601 C732.066,274.471 730.5,276.724 729.356,279.37 C728.213,282.023 727.648,284.913 727.648,288.04 C727.648,291.29 728.329,294.328 729.717,297.154 C731.104,299.986 732.902,302.754 735.137,305.464 C737.358,308.168 739.953,310.82 742.895,313.408 C745.849,315.996 748.88,318.552 752.014,321.076 C755.379,323.966 758.758,326.888 762.123,329.836 C765.5,332.783 768.506,335.886 771.152,339.135 C773.799,342.385 775.943,345.872 777.561,349.603 C779.193,353.335 780.002,357.432 780.002,361.883 C780.002,367.656 778.498,372.864 775.494,377.501" id="Fill-12" fill="#1F3A53" sketch:type="MSShapeGroup"></path>
                <path d="M154.316,433.297 L154.316,454.889 L151.606,454.889 L151.606,406.703 L154.316,406.703 L154.316,430.586 L174.495,430.586 L174.495,406.703 L177.205,406.703 L177.205,454.889 L174.495,454.889 L174.495,433.297 L154.316,433.297" id="Fill-13" fill="#E2822D" sketch:type="MSShapeGroup"></path>
                <path d="M216.38,408.783 C210.317,408.783 205.141,410.928 200.863,415.211 C196.574,419.502 194.429,424.672 194.429,430.735 C194.429,436.797 196.574,441.979 200.863,446.276 C205.141,450.573 210.317,452.717 216.38,452.717 C222.442,452.717 227.619,450.573 231.896,446.276 C236.186,441.979 238.33,436.797 238.33,430.735 C238.33,424.672 236.186,419.502 231.896,415.211 C227.619,410.928 222.442,408.783 216.38,408.783 L216.38,408.783 Z M233.861,413.254 C238.69,418.082 241.105,423.914 241.105,430.735 C241.105,437.561 238.69,443.393 233.861,448.215 C229.031,453.045 223.213,455.459 216.38,455.459 C209.547,455.459 203.729,453.045 198.898,448.215 C194.069,443.393 191.654,437.561 191.654,430.735 C191.654,423.914 194.069,418.082 198.898,413.254 C203.729,408.43 209.547,406.016 216.38,406.016 C223.213,406.016 229.031,408.43 233.861,413.254 L233.861,413.254 Z" id="Fill-14" fill="#E2822D" sketch:type="MSShapeGroup"></path>
                <path d="M258.65,406.703 L276.748,438.024 L294.82,406.703 L297.916,406.703 L297.8,406.914 L297.8,454.889 L295.09,454.889 L295.09,411.616 L276.748,443.354 L258.381,411.616 L258.381,454.889 L255.67,454.889 L255.67,406.914 L255.555,406.703 L258.65,406.703" id="Fill-15" fill="#E2822D" sketch:type="MSShapeGroup"></path>
                <g id="Group-19">
                    <mask id="mask-4" sketch:name="Clip 17" fill="white">
                        <use xlink:href="#path-3"></use>
                    </mask>
                    <g id="Clip-17"></g>
                    <path d="M337.219,406.703 L337.219,409.412 L315.82,409.412 L315.82,429.444 L337.219,429.444 L337.219,432.155 L315.82,432.155 L315.82,452.178 L337.219,452.178 L337.219,454.889 L313.123,454.889 L313.123,406.703 L337.219,406.703" id="Fill-16" fill="#E2822D" sketch:type="MSShapeGroup" mask="url(#mask-4)"></path>
                    <path d="M376.6,406.703 L391.653,448.08 L406.707,406.703 L409.609,406.703 L391.653,456 L373.723,406.703 L376.6,406.703" id="Fill-18" fill="#E2822D" sketch:type="MSShapeGroup" mask="url(#mask-4)"></path>
                </g>
                <path d="M442.414,433.721 L435.067,413.51 L427.721,433.721 L442.414,433.721 L442.414,433.721 Z M443.403,436.432 L426.719,436.432 L420.001,454.889 L417.111,454.889 L435.067,405.592 L452.985,454.889 L450.121,454.889 L443.403,436.432 L443.403,436.432 Z" id="Fill-20" fill="#E2822D" sketch:type="MSShapeGroup"></path>
                <path d="M465.174,454.889 L465.174,406.703 L467.885,406.703 L467.885,452.178 L486.547,452.178 L486.547,454.889 L465.174,454.889" id="Fill-21" fill="#E2822D" sketch:type="MSShapeGroup"></path>
                <path d="M527.585,406.703 L530.334,406.703 L530.334,441.338 C529.833,445.01 528.291,448.133 525.723,450.701 C522.652,453.778 518.941,455.313 514.612,455.313 C510.258,455.313 506.546,453.778 503.463,450.701 C500.394,447.631 498.865,443.926 498.865,439.59 L498.865,406.703 L501.602,406.703 L501.602,439.59 C501.602,443.16 502.873,446.219 505.416,448.762 C507.946,451.299 511.016,452.571 514.612,452.571 C518.209,452.571 521.266,451.299 523.796,448.762 C526.326,446.219 527.585,443.16 527.585,439.59 L527.585,406.703" id="Fill-22" fill="#E2822D" sketch:type="MSShapeGroup"></path>
                <path d="M569.625,406.703 L569.625,409.412 L548.252,409.412 L548.252,429.444 L569.625,429.444 L569.625,432.155 L548.252,432.155 L548.252,452.178 L569.625,452.178 L569.625,454.889 L545.541,454.889 L545.541,406.703 L569.625,406.703" id="Fill-23" fill="#E2822D" sketch:type="MSShapeGroup"></path>
                <path d="M596.059,428.203 C592.629,427.061 589.918,425.494 587.928,423.51 C585.938,421.518 584.947,419.11 584.947,416.285 C584.947,413.51 585.938,411.127 587.928,409.131 C589.918,407.133 592.32,406.131 595.146,406.131 C597.959,406.131 600.374,407.127 602.377,409.117 C603.482,410.178 604.253,411.371 604.664,412.701 L602.224,413.664 C601.863,412.682 601.273,411.776 600.451,410.953 C598.986,409.51 597.215,408.783 595.146,408.783 C593.078,408.783 591.318,409.51 589.854,410.967 C588.391,412.424 587.658,414.198 587.658,416.285 C587.658,418.352 588.391,420.119 589.854,421.582 C591.216,422.926 593.104,424.164 595.519,425.289 C599.372,426.528 602.609,428.467 605.242,431.1 C608.029,433.869 609.43,437.221 609.43,441.158 C609.43,445.114 608.029,448.485 605.242,451.272 C602.455,454.067 599.09,455.459 595.146,455.459 C591.216,455.459 587.851,454.053 585.063,451.246 C582.842,449.018 581.506,446.424 581.057,443.477 L583.625,442.539 C583.895,445.153 585.012,447.432 586.965,449.377 C589.225,451.645 591.961,452.782 595.146,452.782 C598.37,452.782 601.105,451.645 603.379,449.377 C605.641,447.112 606.771,444.369 606.771,441.158 C606.771,437.965 605.641,435.237 603.379,432.963 C601.389,430.979 598.948,429.393 596.059,428.203" id="Fill-24" fill="#E2822D" sketch:type="MSShapeGroup"></path>
                <path d="M638.277,248.082 C638.277,113.448 521.689,0.7 395.559,0.7 C269.427,0.7 161.483,100.539 159.068,243.574 L391.73,206.075 L638.277,248.082" id="Fill-25" fill="#E2802D" sketch:type="MSShapeGroup"></path>
                <path d="M621.631,165.955 L582.43,149.72 L582.43,137.1 L570.498,137.1 L570.498,144.775 L541.624,132.817 L541.624,132.81 L541.598,132.81 L541.598,132.817 L461.604,165.955 L470.813,166.135 L470.813,221.687 L612.409,233.182 L612.409,166.135 L621.631,165.955" id="Fill-26" fill="#FFFFFF" sketch:type="MSShapeGroup"></path>
                <path d="M169.498,165.955 L208.699,149.72 L208.699,137.1 L220.619,137.1 L220.619,144.775 L249.506,132.817 L249.506,132.81 L249.518,132.81 L249.518,132.817 L329.513,165.955 L320.316,166.135 L320.316,221.687 L178.721,238.333 L178.721,166.135 L169.498,165.955" id="Fill-27" fill="#FFFFFF" sketch:type="MSShapeGroup"></path>
                <path d="M526.006,134.242 L462.361,107.892 L462.361,87.412 L442.992,87.412 L442.992,99.865 L396.123,80.451 L396.123,80.431 L396.123,80.438 L396.098,80.431 L396.098,80.451 L266.229,134.242 L281.18,134.532 L281.18,224.712 L511.041,224.712 L511.041,134.532 L526.006,134.242" id="Fill-28" fill="#FFFFFF" sketch:type="MSShapeGroup"></path>
                <path d="M372.027,145.97 L393.426,145.97 L393.426,167.368 L372.027,167.368 L372.027,145.97 Z" id="Fill-29" fill="#E2802D" sketch:type="MSShapeGroup"></path>
                <path d="M397.703,145.97 L419.102,145.97 L419.102,167.368 L397.703,167.368 L397.703,145.97 Z" id="Fill-30" fill="#E2802D" sketch:type="MSShapeGroup"></path>
                <path d="M372.027,171.292 L393.426,171.292 L393.426,192.691 L372.027,192.691 L372.027,171.292 Z" id="Fill-31" fill="#E2802D" sketch:type="MSShapeGroup"></path>
                <path d="M397.703,171.292 L419.102,171.292 L419.102,192.691 L397.703,192.691 L397.703,171.292 Z" id="Fill-32" fill="#E2802D" sketch:type="MSShapeGroup"></path>
                <path d="M272.24,140.819 L281.18,140.819 L281.18,212.58 L272.24,212.58 L272.24,140.819 Z" id="Fill-33" fill="#E2802D" sketch:type="MSShapeGroup"></path>
                <path d="M511.055,140.819 L519.994,140.819 L519.994,212.58 L511.055,212.58 L511.055,140.819 Z" id="Fill-34" fill="#E2802D" sketch:type="MSShapeGroup"></path>
                <path d="M94.449,263.707 C94.449,263.707 96.619,262.75 100.679,260.958 C104.788,259.256 110.774,256.668 118.583,253.843 C134.15,248.056 156.705,240.542 184.359,233.555 C198.166,229.997 213.246,226.606 229.301,223.498 C245.356,220.505 262.362,217.461 280.088,215.342 C297.774,213.004 316.142,211.199 334.855,209.928 C353.57,208.9 372.605,208.097 391.653,208.123 C401.184,208.149 410.715,208.264 420.193,208.688 C424.934,208.868 429.66,209.041 434.387,209.215 C439.101,209.51 443.789,209.805 448.477,210.101 C453.152,210.422 457.814,210.621 462.438,211.052 C467.063,211.514 471.66,211.97 476.233,212.426 C485.392,213.235 494.383,214.443 503.232,215.605 C512.095,216.678 520.777,217.968 529.229,219.477 C533.468,220.197 537.654,220.903 541.791,221.603 C545.9,222.419 549.973,223.221 553.98,224.018 C570.061,226.992 585.051,230.812 598.896,234.184 C612.641,237.967 625.254,241.325 636.248,244.948 C647.242,248.557 656.889,251.498 664.635,254.478 C680.15,260.348 689.013,263.707 689.013,263.707 C689.013,263.707 679.854,261.279 663.851,257.041 C655.9,254.761 646.035,252.757 634.887,249.918 C629.325,248.473 623.326,247.26 617.008,245.956 C610.713,244.614 604.086,243.201 597.176,241.73 C583.252,239.213 568.237,236.291 552.233,233.928 C548.238,233.304 544.193,232.675 540.096,232.039 C535.985,231.519 531.811,230.992 527.611,230.459 C523.398,229.907 519.146,229.355 514.856,228.789 C510.566,228.243 506.212,227.865 501.832,227.383 C493.06,226.458 484.158,225.489 475.104,224.924 C466.074,224.242 456.928,223.511 447.681,223.087 C443.069,222.836 438.433,222.579 433.783,222.329 C429.133,222.194 424.458,222.059 419.783,221.93 C410.432,221.577 401.043,221.565 391.653,221.59 C372.875,221.404 354.084,222.04 335.602,222.9 C317.156,224.101 298.969,225.136 281.449,227.094 C263.904,228.873 247,231.056 230.996,233.375 C215.018,235.886 199.914,238.352 186.042,241.069 C158.298,246.457 135.358,252.044 119.405,256.379 C103.427,260.682 94.449,263.707 94.449,263.707" id="Fill-35" fill="#1F3A53" sketch:type="MSShapeGroup"></path>
            </g>
        </g>
    </g>
</svg>