<?xml version="1.0" encoding="UTF-8" standalone="no"?>
<svg width="68px" height="40px" viewBox="0 0 68 40" version="1.1" xmlns="http://www.w3.org/2000/svg" xmlns:xlink="http://www.w3.org/1999/xlink" xmlns:sketch="http://www.bohemiancoding.com/sketch/ns">
    <!-- Generator: Sketch 3.5.2 (25235) - http://www.bohemiancoding.com/sketch -->
    <title>Final-Logo</title>
    <desc>Created with Sketch.</desc>
    <defs>
        <path id="path-1" d="M0,0.0609475032 L67.9131063,0.0609475032 L67.9131063,39.6977209 L0,39.6977209"></path>
        <path id="path-3" d="M0,0.0609475032 L67.9131063,0.0609475032 L67.9131063,39.6977209 L0,39.6977209"></path>
    </defs>
    <g id="Page-1" stroke="none" stroke-width="1" fill="none" fill-rule="evenodd" sketch:type="MSPage">
        <g id="Final-Logo" sketch:type="MSLayerGroup">
            <g id="Group-3">
                <mask id="mask-2" sketch:name="Clip 2" fill="white">
                    <use xlink:href="#path-1"></use>
                </mask>
                <g id="Clip-2"></g>
                <path d="M6.78868118,33.3239181 C6.75063252,33.5805941 6.71258387,33.8343969 6.67009475,34.0861101 L6.67009475,34.0703508 L6.6230781,34.44779 C6.6230781,34.4898438 6.60183355,34.5104789 6.56056338,34.5104789 C6.56056338,34.5004661 6.54489117,34.5104789 6.51354673,34.5423457 L6.27759283,34.5892753 L5.27108835,34.5892753 C4.93552881,34.5892753 4.60118822,34.5843124 4.26571575,34.5736901 C3.93024328,34.5736901 3.59921127,34.5708169 3.27479641,34.565854 C2.9505557,34.5601946 2.61952369,34.5580179 2.28396415,34.5580179 L1.27859155,34.5580179 C0.943119078,34.5580179 0.607646607,34.5686402 0.273306018,34.5892753 L0.273306018,34.4635493 C0.503600512,34.4534494 0.687052497,34.4031242 0.822355954,34.3142279 C0.958791293,34.2253316 1.06283739,34.1096184 1.13667093,33.9681332 C1.21041741,33.8266479 1.25961076,33.6644405 1.28642766,33.4810755 C1.31219974,33.2976236 1.32560819,33.1114725 1.32560819,32.9230576 L1.32560819,24.041265 C1.32560819,23.8841076 1.3066274,23.7611677 1.27084251,23.6721844 C1.23392574,23.5832881 1.18360051,23.5123278 1.12091165,23.4597388 C1.05830986,23.4077593 0.987871959,23.3679693 0.908466069,23.3417618 C0.830192061,23.3159898 0.744081946,23.2925685 0.649003841,23.2713239 C0.545044814,23.2499923 0.443262484,23.2215211 0.342612036,23.1846044 C0.244225352,23.1482971 0.136783611,23.087872 0.0204609475,23.0040256 C0.000435339309,22.9833035 -0.0052240717,22.9620589 0.00487580026,22.9408143 C0.0161075544,22.9200922 0.0316927017,22.9094699 0.0518924456,22.9094699 L1.01138028,22.9094699 C1.35695262,22.9200922 1.7706991,22.9279283 2.25270679,22.9329782 C2.73584635,22.9385506 3.19660948,22.9408143 3.63717286,22.9408143 C3.97151344,22.9408143 4.29923688,22.9385506 4.6191242,22.9329782 C4.93892446,22.9279283 5.22633547,22.9200922 5.48353393,22.9094699 C5.73968758,22.8994571 5.95996927,22.8837849 6.14446607,22.8625403 C6.32678617,22.8419052 6.45094494,22.8156108 6.51354673,22.7837439 C6.57614853,22.7422996 6.60749296,22.7579718 6.60749296,22.8311959 C6.57614853,23.1247887 6.53148271,23.4177721 6.47332138,23.7113649 C6.41620487,24.0048707 6.35586684,24.2878412 6.29317798,24.5601895 C6.28316517,24.6126914 6.27193342,24.6574443 6.26078873,24.6938387 C6.25190781,24.7306684 6.24067606,24.7748988 6.22953137,24.8274878 C6.2194315,24.8587452 6.19592318,24.8721536 6.16013828,24.8665813 C6.12208963,24.8615314 6.10415365,24.843073 6.10415365,24.8118156 C6.0617516,24.2984635 5.88953137,23.9602049 5.58531626,23.7979974 C5.28110115,23.6352676 4.89417157,23.5542074 4.42226376,23.5542074 L2.74028681,23.5542074 L2.74028681,28.0029398 L5.20839949,28.0029398 C5.28110115,28.0029398 5.37287068,27.9794315 5.48353393,27.9318924 C5.59428425,27.8849629 5.70607939,27.8351601 5.82127017,27.7826581 C5.90511652,27.7406914 5.98904994,27.7043841 6.07289629,27.6724302 C6.15682971,27.6411729 6.24067606,27.6154008 6.32460948,27.5942433 C6.3771114,27.5729117 6.40279641,27.5942433 6.40279641,27.6568451 C6.38155186,27.8245378 6.36152625,27.9923175 6.34019462,28.1600973 C6.31895006,28.32779 6.29883739,28.4899974 6.27759283,28.6470679 C6.24511652,28.8568143 6.21612292,29.0586376 6.19139565,29.2526248 C6.16466581,29.4466991 6.14107042,29.6429501 6.11991293,29.8419872 C6.11991293,29.8733316 6.10650448,29.8945762 6.08073239,29.9046761 C6.05504738,29.9152983 6.03040717,29.9102484 6.01029449,29.8890038 C5.95770551,29.8370243 5.91634827,29.7710269 5.88509091,29.6927529 C5.8526146,29.6138694 5.82692958,29.5328092 5.80568502,29.4489629 C5.78435339,29.3650294 5.75866837,29.2811831 5.72732394,29.1973367 C5.6949347,29.1134033 5.63790525,29.0300794 5.55397183,28.9457106 C5.49137004,28.873009 5.36277081,28.8148476 5.16930602,28.7728809 C4.97470935,28.7315237 4.76557234,28.702443 4.54076312,28.6867708 C4.31490909,28.6705762 4.09236364,28.6627401 3.87208195,28.6627401 L3.40008707,28.6627401 L2.75595903,28.6627401 L2.75595903,33.0331114 C2.86104994,33.2115134 2.99191293,33.3630115 3.14959283,33.4889117 C3.30622791,33.6147247 3.47618438,33.7192932 3.6595493,33.8031396 C3.84300128,33.8869859 4.03533419,33.9502843 4.23437132,33.9921639 C4.43340845,34.0340435 4.62696031,34.0547657 4.81589757,34.0547657 C5.30800512,34.0547657 5.73516005,33.9239027 6.09640461,33.6616543 C6.45764917,33.3999283 6.69691165,33.0281485 6.81105762,32.5456184 L6.92172087,32.5612036 C6.86921895,32.8128297 6.82446607,33.0673291 6.78868118,33.3239181" id="Fill-1" fill="#1F3A53" sketch:type="MSShapeGroup" mask="url(#mask-2)"></path>
            </g>
            <path d="M12.3758259,26.289096 C12.365726,26.3209629 12.3423047,26.3338489 12.305388,26.328799 C12.2684712,26.3232266 12.2505352,26.3052907 12.2505352,26.2734238 C12.2505352,25.9278515 12.156589,25.6840615 11.9675647,25.5426633 C11.7786274,25.401178 11.5169014,25.330653 11.1814289,25.330653 C11.0338489,25.330653 10.8951498,25.3384891 10.7654187,25.3541613 C10.6334238,25.3698335 10.4948118,25.3882919 10.3483636,25.408927 C10.2442305,25.4302586 10.1279078,25.4458438 10.0027042,25.4559437 C9.87741357,25.4665659 9.76109091,25.4721383 9.656,25.4721383 L9.656,28.5531216 L11.7786274,28.5531216 C11.8524609,28.5531216 11.9351754,28.5212548 12.0302535,28.458653 C12.1253316,28.3960512 12.1980333,28.3328399 12.2505352,28.2702382 C12.270735,28.2489936 12.2952881,28.2439437 12.3210602,28.2540435 C12.3467452,28.2646658 12.3601536,28.2858233 12.3601536,28.3171677 C12.340041,28.6107606 12.3109603,28.8965173 12.2740435,29.1738284 C12.2371268,29.451749 12.1923739,29.7268835 12.1409168,29.9991447 C12.1297721,30.030402 12.1062638,30.0438976 12.069347,30.0383252 C12.0335621,30.0332753 12.0145813,30.0148169 12.0145813,29.9834725 C12.0245941,29.6373777 11.9385711,29.3991601 11.7551191,29.2682971 C11.5716671,29.1375211 11.3122919,29.0715237 10.9778643,29.0715237 L9.656,29.0715237 L9.656,32.2157183 C9.656,32.3414443 9.68290397,32.4723073 9.73540589,32.6087426 C9.78799488,32.7446556 9.86182843,32.8655058 9.95577465,32.9699872 C10.0497209,33.0751652 10.1593393,33.1590115 10.2856748,33.2216133 C10.4120102,33.2848246 10.5474008,33.3160819 10.6938489,33.3160819 L10.6938489,33.4419821 L10.5842305,33.4419821 C10.4679949,33.4419821 10.3583764,33.4363227 10.2532855,33.4263099 C10.1491524,33.4156876 10.0384891,33.4050653 9.92443022,33.394443 C9.80810755,33.3843431 9.69857618,33.376507 9.59348528,33.3709347 C9.4883073,33.3658848 9.3842612,33.3630115 9.27917029,33.3630115 C9.1751242,33.3630115 9.07003329,33.3686709 8.96494238,33.3787708 C8.8597644,33.3893931 8.7546735,33.3999283 8.6506274,33.4100282 C8.52429193,33.4206504 8.40126504,33.4284866 8.28041485,33.434146 C8.16078361,33.4391088 8.04341613,33.4419821 7.92709347,33.4419821 L7.83314725,33.4419821 C7.80180282,33.4419821 7.78395391,33.4235237 7.77838156,33.3866069 C7.77272215,33.3502125 7.78621767,33.3267042 7.81747503,33.3160819 C8.00536748,33.2848246 8.15303457,33.2451216 8.25812548,33.198105 C8.36217157,33.1511754 8.43818182,33.0879641 8.48624328,33.0096901 C8.53325992,32.9308937 8.55894494,32.8312881 8.56451729,32.710525 C8.56904481,32.5902843 8.57122151,32.4354776 8.57122151,32.2469757 L8.57122151,25.6762254 C8.57122151,25.4352215 8.52429193,25.2859872 8.43034571,25.2283483 C8.33639949,25.1707964 8.22678105,25.1260435 8.10044558,25.0947862 C8.04794366,25.074064 7.98299104,25.0499462 7.90471703,25.0237388 C7.82531114,24.9979667 7.74364149,24.9587862 7.66092702,24.9062843 C7.62966965,24.8850397 7.6184379,24.8615314 7.62966965,24.8353239 C7.63855058,24.8090294 7.66092702,24.7961434 7.69227145,24.7961434 C8.3520717,24.8274878 9.0174443,24.843073 9.68734443,24.843073 L10.8034673,24.843073 C10.8571012,24.843073 10.910735,24.8459462 10.9688963,24.8509091 C11.0270576,24.8564814 11.0874827,24.8587452 11.1501716,24.8587452 C11.3916978,24.8693675 11.6399283,24.8693675 11.8972138,24.8587452 C12.1532804,24.8486453 12.3758259,24.790484 12.5648502,24.6860026 C12.5860948,24.6652804 12.6084712,24.6652804 12.6352881,24.6860026 C12.662105,24.7072471 12.6688092,24.7329321 12.6598412,24.7642766 L12.3758259,26.289096" id="Fill-4" fill="#1F3A53" sketch:type="MSShapeGroup"></path>
            <path d="M18.1296184,26.289096 C18.1194315,26.3209629 18.0949654,26.3338489 18.0590935,26.328799 C18.0211319,26.3232266 18.0031959,26.3052907 18.0031959,26.2734238 C18.0031959,25.9278515 17.9092497,25.6840615 17.7213572,25.5426633 C17.5312881,25.401178 17.2695621,25.330653 16.9340896,25.330653 C16.7876415,25.330653 16.6489424,25.3384891 16.5180794,25.3541613 C16.3860845,25.3698335 16.2473854,25.3882919 16.1021562,25.408927 C15.9968912,25.4302586 15.8806556,25.4458438 15.7553649,25.4559437 C15.6301613,25.4665659 15.5138387,25.4721383 15.4097926,25.4721383 L15.4097926,28.5531216 L17.5312881,28.5531216 C17.6050346,28.5531216 17.688968,28.5212548 17.7840461,28.458653 C17.8779923,28.3960512 17.9518259,28.3328399 18.0031959,28.2702382 C18.0244405,28.2489936 18.0479488,28.2439437 18.0747657,28.2540435 C18.1005378,28.2646658 18.1128143,28.2858233 18.1128143,28.3171677 C18.0927017,28.6107606 18.063621,28.8965173 18.0278361,29.1738284 C17.9897875,29.451749 17.9450346,29.7268835 17.8936645,29.9991447 C17.8824328,30.030402 17.8600563,30.0438976 17.8220077,30.0383252 C17.7862228,30.0332753 17.7682868,30.0148169 17.7682868,29.9834725 C17.7773419,29.6373777 17.6922766,29.3991601 17.5089987,29.2682971 C17.3254597,29.1375211 17.0660845,29.0715237 16.730525,29.0715237 L15.4097926,29.0715237 L15.4097926,32.2157183 C15.4097926,32.3414443 15.4355647,32.4723073 15.4891985,32.6087426 C15.5406556,32.7446556 15.6144891,32.8655058 15.7084353,32.9699872 C15.8023816,33.0751652 15.9131319,33.1590115 16.0394673,33.2216133 C16.1646709,33.2848246 16.3011933,33.3160819 16.4476415,33.3160819 L16.4476415,33.4419821 L16.3369782,33.4419821 C16.2217875,33.4419821 16.112169,33.4363227 16.0070781,33.4263099 C15.9029449,33.4156876 15.7922817,33.4050653 15.677178,33.394443 C15.5619001,33.3843431 15.4512369,33.376507 15.3472778,33.3709347 C15.2420999,33.3658848 15.1380538,33.3630115 15.0329629,33.3630115 C14.9277849,33.3630115 14.822694,33.3686709 14.7176031,33.3787708 C14.613644,33.3893931 14.5084661,33.3999283 14.40442,33.4100282 C14.2780845,33.4206504 14.1550576,33.4284866 14.0342945,33.434146 C13.9145762,33.4391088 13.7960768,33.4419821 13.680886,33.4419821 L13.5858079,33.4419821 C13.5545506,33.4419821 13.5367017,33.4235237 13.5321741,33.3866069 C13.5254699,33.3502125 13.5388784,33.3267042 13.5701357,33.3160819 C13.7591601,33.2848246 13.9056953,33.2451216 14.0107862,33.198105 C14.1159641,33.1511754 14.1919744,33.0879641 14.238904,33.0096901 C14.2859206,32.9308937 14.3127375,32.8312881 14.317265,32.710525 C14.3228374,32.5902843 14.3250141,32.4354776 14.3250141,32.2469757 L14.3250141,25.6762254 C14.3250141,25.4352215 14.2780845,25.2859872 14.1830064,25.2283483 C14.0890602,25.1707964 13.9795288,25.1260435 13.8542382,25.0947862 C13.8006044,25.074064 13.7357388,25.0499462 13.6573777,25.0237388 C13.5791037,24.9979667 13.4974341,24.9587862 13.4136748,24.9062843 C13.3823303,24.8850397 13.3710986,24.8615314 13.3823303,24.8353239 C13.3923431,24.8090294 13.4136748,24.7961434 13.4449321,24.7961434 C14.1047324,24.8274878 14.7712369,24.843073 15.441137,24.843073 L16.5572599,24.843073 C16.6098489,24.843073 16.6645275,24.8459462 16.7226889,24.8509091 C16.7798054,24.8564814 16.8401434,24.8587452 16.9027452,24.8587452 C17.1443585,24.8693675 17.3926761,24.8693675 17.6497875,24.8587452 C17.907073,24.8486453 18.1296184,24.790484 18.3186428,24.6860026 C18.3386684,24.6652804 18.3622638,24.6652804 18.3879488,24.6860026 C18.4147657,24.7072471 18.4226018,24.7329321 18.4125019,24.7642766 L18.1296184,26.289096" id="Fill-5" fill="#1F3A53" sketch:type="MSShapeGroup"></path>
            <path d="M26.8301357,27.8457823 C26.6781152,27.3325173 26.453306,26.8711447 26.1536184,26.4624481 C25.8561076,26.0536645 25.4881588,25.723242 25.0530807,25.4721383 C24.6193086,25.2205122 24.118233,25.0947862 23.552379,25.0947862 C23.0177823,25.0947862 22.5436108,25.1914315 22.1298643,25.3855058 C21.7161178,25.579493 21.3671498,25.8467913 21.0853982,26.1873137 C20.8012087,26.5278361 20.5843227,26.9209475 20.4322151,27.3660384 C20.2801946,27.8117388 20.2040973,28.2858233 20.2040973,28.7885531 C20.2040973,29.3130499 20.2823713,29.8313649 20.4400512,30.344717 C20.5977311,30.8585915 20.8302894,31.3221408 21.1389449,31.7358873 C21.4488195,32.1502433 21.8233854,32.4857157 22.2640359,32.7423918 C22.7035544,32.9990679 23.2068067,33.1270576 23.7726607,33.1270576 C24.3072574,33.1270576 24.7780333,33.0252753 25.1873393,32.8206658 C25.5966453,32.6165787 25.9389091,32.3443175 26.2163073,32.0031857 C26.4946633,31.6631857 26.7038003,31.2673752 26.8458079,30.8166248 C26.9878156,30.3659616 27.0572087,29.8890038 27.0572087,29.3863611 C27.0572087,28.873009 26.9811985,28.3591344 26.8301357,27.8457823 L26.8301357,27.8457823 Z M27.7416492,31.0917593 C27.4955954,31.6106837 27.167872,32.0585608 26.7597849,32.4354776 C26.3504789,32.8128297 25.8762202,33.1064225 25.3372702,33.3160819 C24.7971012,33.5258284 24.2278515,33.6303969 23.6305659,33.6303969 C23.1386325,33.6303969 22.6275442,33.5101562 22.0986069,33.2685429 C21.5684507,33.0281485 21.0853982,32.7133111 20.6446607,32.3258592 C20.2040973,31.9383201 19.8395442,31.4977567 19.5521332,31.0050397 C19.2635903,30.5124968 19.1193188,30.0148169 19.1193188,29.5120871 C19.1193188,28.7471959 19.1908886,28.0890499 19.3317644,27.5388681 C19.4727273,26.9885992 19.7008451,26.5227862 20.0162919,26.1397746 C20.3293009,25.7572855 20.7430474,25.4430576 21.2575314,25.1970038 C21.7708835,24.9504277 22.3994264,24.7486044 23.143073,24.5914469 L23.3488143,24.5758617 C24.0186274,24.5237951 24.641598,24.6205275 25.2187708,24.8665813 C25.7956825,25.1131575 26.2978899,25.4587298 26.7284405,25.9043431 C27.1578592,26.3495211 27.4955954,26.8761946 27.7416492,27.4840154 C27.9876159,28.0918361 28.1106428,28.7315237 28.1106428,29.4019462 C28.1106428,30.009767 27.9876159,30.5728348 27.7416492,31.0917593 L27.7416492,31.0917593 Z" id="Fill-6" fill="#1F3A53" sketch:type="MSShapeGroup"></path>
            <path d="M33.3220896,26.6978796 C33.2437286,26.4255314 33.1252292,26.1794776 32.9686812,25.9591959 C32.8121332,25.7388271 32.6175365,25.5582484 32.387242,25.4167631 C32.1567734,25.2753649 31.889475,25.204927 31.585347,25.204927 C31.4600563,25.204927 31.3337209,25.2126761 31.2084302,25.2283483 C31.0832266,25.2440205 30.9623764,25.2781511 30.8460538,25.330653 L30.8460538,29.2448758 C31.0250653,29.2761332 31.1972855,29.2973777 31.3649782,29.3074776 C31.532758,29.3180999 31.7061101,29.3230627 31.8839027,29.3230627 C32.4710013,29.3230627 32.8769987,29.1637286 33.1028528,28.8439283 C33.327662,28.524041 33.440589,28.0812138 33.440589,27.5153598 C33.440589,27.2430115 33.4003636,26.9706633 33.3220896,26.6978796 L33.3220896,26.6978796 Z M36.8593086,33.5912164 C36.6658438,33.638233 36.4746428,33.6616543 36.2857055,33.6616543 C35.9714776,33.6616543 35.688507,33.6041024 35.4367939,33.4889117 C35.1851677,33.3736338 34.9593137,33.2271857 34.7601895,33.0488707 C34.5611524,32.8704686 34.3755237,32.6662945 34.2033035,32.4354776 C34.0299513,32.205096 33.8655672,31.9696645 33.7078873,31.7281383 C33.5614392,31.508379 33.4069808,31.2907964 33.2437286,31.0760871 C33.0816082,30.8613777 32.9038156,30.6673035 32.709306,30.4945608 C32.5146223,30.3212087 32.3066172,30.1825967 32.0807631,30.0779411 C31.854822,29.9728502 31.602064,29.9202612 31.3180487,29.9202612 L31.0675544,29.9202612 C30.9938079,29.9202612 30.9153598,29.9308835 30.8304686,29.9522151 L30.8304686,32.1843739 C30.8304686,32.4880666 30.9221511,32.7474417 31.105516,32.9621511 C31.288968,33.1774699 31.532758,33.3004968 31.836886,33.3317542 L31.836886,33.4575672 C31.5954469,33.4363227 31.358274,33.4178643 31.1211882,33.4022791 C30.8862791,33.3866069 30.6470166,33.3787708 30.4066223,33.3787708 C30.1661408,33.3787708 29.9324507,33.3893931 29.7076415,33.4100282 C29.4817004,33.4313598 29.2492292,33.4575672 29.0075288,33.4889117 C28.9762714,33.4995339 28.9527631,33.4866479 28.935959,33.4497311 C28.9202868,33.4129014 28.9293419,33.3843431 28.9605992,33.3630115 C29.1798361,33.2585301 29.363201,33.1013726 29.510781,32.8917132 C29.6573163,32.6820538 29.7300179,32.4566351 29.7300179,32.2157183 L29.7300179,25.9435237 C29.7300179,25.7025198 29.6450397,25.4905967 29.4706428,25.3066223 C29.2983355,25.1237798 29.0913752,25.0002305 28.8509808,24.9376287 C28.8196364,24.9270064 28.806315,24.9034981 28.8107554,24.8665813 C28.8163278,24.8301869 28.8353956,24.8118156 28.866653,24.8118156 L31.9622638,24.8118156 C32.2876364,24.8118156 32.6074366,24.8509091 32.9216645,24.9297926 C33.2359795,25.0080666 33.5144225,25.1316159 33.754904,25.2987862 C33.9952983,25.4665659 34.1899821,25.6868476 34.3363431,25.9591959 C34.4829654,26.2320666 34.556799,26.5563944 34.556799,26.9338335 C34.556799,27.4370858 34.4180128,27.9140435 34.1406146,28.3641844 C33.8622586,28.8148476 33.5502074,29.2029091 33.2046351,29.5277593 C33.3198259,29.6535723 33.4451165,29.8129065 33.5814648,30.0069808 C33.7179872,30.200968 33.8655672,30.4028784 34.0221152,30.6120154 C34.2524968,30.9267657 34.4962868,31.2489168 34.7534853,31.5788169 C35.0096389,31.9092394 35.279114,32.2078822 35.5620845,32.4750935 C35.844968,32.7423918 36.1390832,32.9521383 36.4433854,33.1036364 C36.7463816,33.2557439 37.0562561,33.3111191 37.370484,33.2685429 L37.4174136,33.394443 C37.2395339,33.4788118 37.0528604,33.5437644 36.8593086,33.5912164 L36.8593086,33.5912164 Z" id="Fill-7" fill="#1F3A53" sketch:type="MSShapeGroup"></path>
            <path d="M44.0199437,25.5660845 C44.008799,25.8389552 43.9730141,26.0905813 43.9104123,26.3209629 C43.8991805,26.3523073 43.877936,26.3679795 43.8466786,26.3679795 C43.8254341,26.3679795 43.8097618,26.3523073 43.799749,26.3209629 C43.7158156,25.954146 43.5502996,25.710356 43.3042458,25.5895928 C43.0582791,25.4693521 42.7674725,25.408927 42.432,25.408927 L41.0485787,25.408927 L41.0485787,32.152507 C41.0485787,32.4566351 41.1436569,32.7133111 41.3315493,32.9230576 C41.5204866,33.132717 41.760968,33.26358 42.0551703,33.3160819 C42.0864277,33.3267042 42.0998361,33.3502125 42.0942638,33.3866069 C42.0886044,33.4235237 42.0707554,33.4419821 42.0394981,33.4419821 C41.7665403,33.4206504 41.4993291,33.4022791 41.2376031,33.3866069 C40.9759641,33.3709347 40.7086658,33.3630115 40.4357081,33.3630115 C40.2266581,33.3630115 40.0219616,33.3686709 39.8229245,33.3787708 C39.6238873,33.3893931 39.4191908,33.4050653 39.2101408,33.4263099 C39.1787093,33.4363227 39.1598156,33.4206504 39.1541562,33.3787708 C39.1497157,33.3373265 39.1631242,33.3111191 39.1944686,33.3004968 C39.3721741,33.2585301 39.5109603,33.2138643 39.6104789,33.1667606 C39.7099104,33.1193086 39.7860077,33.059493 39.8385967,32.9855723 C39.8911857,32.9124353 39.922443,32.8156159 39.9325429,32.6949398 C39.9437746,32.5746991 39.948128,32.4253777 39.948128,32.2469757 L39.948128,25.4246863 L38.0626735,25.4246863 C37.8110474,25.4246863 37.5906786,25.5084456 37.4017414,25.6762254 C37.2138489,25.8440051 37.0775006,26.0379923 36.9935672,26.2577516 C36.9824225,26.289096 36.9621357,26.2997183 36.9308784,26.289096 C36.8984891,26.2790832 36.8828169,26.2577516 36.8828169,26.2264942 L36.8514725,26.0224072 C36.8514725,25.8546274 36.872717,25.6946837 36.9141613,25.5426633 C36.9566504,25.3910781 36.9980948,25.2417567 37.0405839,25.0947862 C37.0618284,25.021475 37.081854,24.9504277 37.1031857,24.8822535 C37.1244302,24.8146018 37.1444558,24.7435544 37.1657004,24.6703303 C37.187032,24.6177414 37.2182894,24.6071191 37.2607785,24.6389859 C37.4174136,24.7435544 37.5772702,24.8090294 37.7394776,24.8353239 C37.9027298,24.8615314 38.0783457,24.8744174 38.2661511,24.8744174 L43.2964097,24.8744174 C43.4116876,24.8744174 43.5580487,24.8486453 43.7370602,24.7961434 C43.7785045,24.7855211 43.8153342,24.7748988 43.8466786,24.7642766 C43.877936,24.7541767 43.9148528,24.7435544 43.9573419,24.7329321 L44.0357029,24.7961434 C44.0357029,25.0371472 44.0300435,25.2938233 44.0199437,25.5660845" id="Fill-8" fill="#1F3A53" sketch:type="MSShapeGroup"></path>
            <path d="M50.1428169,31.9170755 C50.1373316,31.94842 50.1349808,31.9796773 50.1349808,32.0110218 C50.1137362,32.2419257 50.090315,32.4644712 50.0634981,32.6792676 C50.037726,32.8945864 49.9717286,33.1064225 49.8677695,33.3160819 C49.8777823,33.3267042 49.8834417,33.3474264 49.8834417,33.3787708 C49.8834417,33.4100282 49.8520973,33.4419821 49.7883636,33.4732394 C49.3690448,33.4313598 48.9529475,33.4022791 48.539114,33.3866069 C48.1253675,33.3709347 47.702653,33.3630115 47.2732343,33.3630115 C46.927749,33.3630115 46.5821767,33.3686709 46.2365173,33.3787708 C45.8899001,33.3893931 45.5443278,33.3999283 45.1987554,33.4100282 C45.1462535,33.4100282 45.0914008,33.4129014 45.0332394,33.4178643 C44.9761229,33.4235237 44.9214443,33.4263099 44.8688553,33.4263099 C44.8375109,33.4263099 44.8218387,33.4050653 44.8218387,33.3630115 C44.8218387,33.3211319 44.8375109,33.3004968 44.8688553,33.3004968 C44.983959,33.2898745 45.0890499,33.2479078 45.1830832,33.1745967 C45.2770294,33.1013726 45.3553035,33.0096901 45.4189501,32.8995493 C45.4816389,32.7894085 45.5286556,32.6714315 45.56,32.5456184 C45.5912574,32.4197183 45.6069296,32.3101869 45.6069296,32.2157183 L45.6069296,25.8177106 C45.6069296,25.5660845 45.5230832,25.3670474 45.3553035,25.2205122 C45.1875237,25.074064 44.9783867,24.9951805 44.7267606,24.9845583 L44.7267606,24.8587452 C44.9257977,24.8693675 45.1204814,24.8744174 45.3082868,24.8744174 L45.8899001,24.8744174 C46.4355544,24.8744174 46.9902638,24.8587452 47.5561178,24.8274878 C47.5875493,24.8274878 47.606443,24.8459462 47.6121024,24.8822535 C47.61663,24.9191703 47.6042663,24.9425915 47.5718771,24.9533009 C47.3526402,24.9951805 47.153516,25.0919129 46.9746786,25.2440205 C46.796799,25.396128 46.7072932,25.5817567 46.7072932,25.8021255 L46.7072932,31.6497772 C46.7072932,32.0898182 46.8460794,32.4276415 47.1244353,32.6635954 C47.4018335,32.8995493 47.7451421,33.0175262 48.1544481,33.0175262 C48.5526095,33.0175262 48.9182945,32.9045992 49.253767,32.6792676 C49.5892394,32.4538489 49.846525,32.1580794 50.0243175,31.7912625 L50.150653,31.8226069 C50.150653,31.8538643 50.1473444,31.8858182 50.1428169,31.9170755" id="Fill-9" fill="#1F3A53" sketch:type="MSShapeGroup"></path>
            <path d="M55.840799,32.632251 C55.8094545,32.8575826 55.7781101,33.0907503 55.7468528,33.3317542 C55.7468528,33.3630115 55.7255211,33.3787708 55.6841639,33.3787708 L55.6684917,33.394443 C55.5835134,33.4263099 55.5164712,33.4419821 55.4638822,33.4419821 C55.2222689,33.4419821 54.9784789,33.4391088 54.7325122,33.434146 C54.4864584,33.4284866 54.2425813,33.4263099 54.0020999,33.4263099 C53.7919181,33.4263099 53.5873086,33.4235237 53.3882714,33.4178643 C53.1892343,33.4129014 52.9856697,33.4100282 52.7754008,33.4100282 C52.4924302,33.4100282 52.207283,33.4129014 51.9188271,33.4178643 C51.6301972,33.4235237 51.3450499,33.4313598 51.0620794,33.4419821 L51.0620794,33.3160819 C51.2197593,33.3160819 51.3472266,33.2820384 51.4468323,33.2138643 C51.5463508,33.145516 51.6223611,33.059493 51.6749501,32.954315 C51.727452,32.8497465 51.7621921,32.7317695 51.7778643,32.6009065 C51.7934494,32.4701306 51.8012855,32.3364814 51.8012855,32.2000461 L51.8012855,25.6606402 C51.8012855,25.4508937 51.7509603,25.3144584 51.6514417,25.2518566 C51.5520102,25.1891677 51.4445685,25.1366658 51.3293777,25.0947862 C51.2667759,25.074064 51.196338,25.0499462 51.1169321,25.0237388 C51.0385711,24.9979667 50.9569885,24.9587862 50.8731421,24.9062843 C50.8518976,24.8850397 50.8440615,24.8615314 50.8496338,24.8353239 C50.8552932,24.8090294 50.8731421,24.7961434 50.9043995,24.7961434 L55.3855211,24.7961434 C55.4269654,24.7748988 55.4716312,24.7564405 55.5186479,24.7407682 C55.5656645,24.725096 55.6103303,24.7072471 55.6517746,24.6860026 C55.7042766,24.6652804 55.7310935,24.6860026 55.7310935,24.7486044 C55.6998361,25.021475 55.6596108,25.2753649 55.6125941,25.5113188 C55.5656645,25.7472727 55.5164712,25.9854904 55.4638822,26.2264942 C55.4527375,26.2577516 55.4292292,26.2712471 55.3933572,26.2655877 C55.3564405,26.2606248 55.3374597,26.2421665 55.3374597,26.210822 C55.3162151,25.8440051 55.1910115,25.6030013 54.9605429,25.4878105 C54.7302484,25.3726197 54.4473649,25.3144584 54.1118054,25.3144584 L52.8703918,25.3144584 L52.8703918,28.5375365 L54.6933316,28.5375365 C54.7458335,28.5375365 54.8141818,28.5212548 54.8980282,28.4899974 C54.9817875,28.458653 55.0657209,28.4273086 55.1496543,28.3960512 C55.264758,28.3328399 55.3799488,28.2858233 55.4952266,28.2540435 C55.5477286,28.2333214 55.5734136,28.2540435 55.5734136,28.3171677 C55.5634008,28.4429808 55.5499923,28.5794161 55.5343201,28.7259513 C55.5186479,28.873009 55.5007119,29.0089219 55.4795544,29.1346479 C55.4583099,29.2604609 55.4426376,29.3913239 55.4325378,29.5277593 C55.4213931,29.6636722 55.4057209,29.7950576 55.3855211,29.9202612 C55.3855211,29.9522151 55.3721127,29.9728502 55.3452958,29.9834725 C55.3195237,29.9941818 55.2961024,29.9890448 55.2748579,29.9678003 C55.2222689,29.9152983 55.1887478,29.8633188 55.1731626,29.8107298 C55.1574904,29.7581408 55.1384225,29.7005019 55.1183099,29.6373777 C55.0970653,29.5747759 55.0758207,29.5120871 55.0545762,29.4489629 C55.0333316,29.3863611 54.9974597,29.3287222 54.9449577,29.2761332 C54.8923688,29.2235442 54.795114,29.1844507 54.6541511,29.1581562 C54.5121434,29.1318617 54.3601229,29.1112266 54.1979155,29.0955544 C54.0357951,29.0793598 53.8757644,29.0715237 53.7192164,29.0715237 L53.356927,29.0715237 L52.886064,29.0715237 L52.886064,32.3101869 C53.0426991,32.5405685 53.2652446,32.7161844 53.5537004,32.8364251 C53.8423303,32.9571012 54.1218182,33.0175262 54.3947759,33.0175262 C54.7615928,33.0175262 55.073557,32.9207939 55.3297106,32.7268067 C55.5869091,32.5327324 55.7568656,32.257598 55.840799,31.9014033 L55.9671344,31.9327478 C55.9145455,32.1737516 55.8720563,32.4069193 55.840799,32.632251" id="Fill-10" fill="#1F3A53" sketch:type="MSShapeGroup"></path>
            <path d="M60.8620026,32.1687017 C60.6686248,32.4723073 60.4225711,32.7317695 60.1239283,32.9464789 C59.8252855,33.1611882 59.4943406,33.328968 59.133096,33.4497311 C58.7718515,33.5699718 58.4284558,33.6303969 58.1031703,33.6303969 C57.9465352,33.6303969 57.7811063,33.6124609 57.608799,33.5755442 C57.4354469,33.5386274 57.277767,33.4788118 57.1368912,33.394443 C56.9948835,33.3111191 56.8796056,33.2036773 56.7914059,33.072379 C56.7018131,32.941516 56.6571472,32.7765224 56.6571472,32.5768758 C56.6571472,32.4516722 56.6705557,32.3258592 56.6963278,32.2000461 C56.7230576,32.074233 56.7465659,31.9539923 56.7678105,31.8382791 L56.8461716,31.4608399 C56.8461716,31.4294955 56.8674161,31.4138233 56.9086863,31.4138233 C56.9501306,31.4138233 56.9713752,31.4294955 56.9713752,31.4608399 L56.9713752,31.6967939 C56.9713752,31.9170755 57.0194366,32.1110627 57.1134699,32.2783201 C57.2073291,32.4460128 57.3280922,32.5902843 57.4746274,32.710525 C57.6210755,32.8312881 57.7911191,32.9207939 57.9856287,32.9778233 C58.1791805,33.0359846 58.3759539,33.0645429 58.5750781,33.0645429 C58.7640154,33.0645429 58.9575672,33.0331114 59.1566044,32.9699872 C59.3556415,32.9073854 59.5368297,32.8156159 59.6989501,32.6949398 C59.8610704,32.5746991 59.9953291,32.4276415 60.10042,32.2548118 C60.2044661,32.0819821 60.256968,31.890781 60.256968,31.6811216 C60.256968,31.4820845 60.2100384,31.2857465 60.1160922,31.0917593 C60.0210141,30.897685 59.8958105,30.7015211 59.7380435,30.5023969 C59.5815826,30.3033598 59.4025711,30.1043227 59.203621,29.9046761 C59.0044968,29.7061613 58.8009321,29.5065147 58.5907503,29.3074776 C58.3703816,29.0978182 58.1512318,28.885895 57.9309501,28.6705762 C57.7104942,28.4563892 57.5172036,28.2361076 57.3493367,28.0107759 C57.181644,27.7854443 57.0452087,27.5573265 56.9400307,27.3269449 C56.8349398,27.0965634 56.7834827,26.8605224 56.7834827,26.6196056 C56.7834827,26.2633239 56.8830013,25.9569321 57.0820384,25.6997337 C57.2811626,25.4430576 57.5272164,25.2333982 57.8201997,25.0711908 C58.114315,24.908548 58.4341152,24.7883073 58.7796876,24.7094238 C59.1252599,24.6311498 59.4450602,24.5914469 59.7380435,24.5914469 C60.1574494,24.5914469 60.5399385,24.6440359 60.8855109,24.7486044 C60.9167682,24.7698489 60.9335723,24.790484 60.9335723,24.8118156 C60.8910832,25.3250807 60.8284814,25.8546274 60.7446351,26.3992369 C60.7334033,26.4305813 60.7133777,26.4467759 60.6819462,26.4467759 C60.6506889,26.4467759 60.6294443,26.4305813 60.6182996,26.3992369 C60.5343662,26.03242 60.3756415,25.7181921 60.1396005,25.4559437 C59.9036466,25.1943047 59.5916825,25.0634417 59.203621,25.0634417 C58.8053726,25.0634417 58.4732958,25.1914315 58.2060845,25.4481076 C57.9386991,25.705306 57.8045275,26.03242 57.8045275,26.4305813 C57.8045275,26.6407631 57.8492804,26.834315 57.9386991,27.01263 C58.027073,27.191032 58.1433956,27.3638617 58.2842714,27.5309449 C58.4262791,27.6987247 58.5907503,27.8642407 58.7796876,28.0264481 C58.9687119,28.189178 59.1621767,28.3540845 59.3612138,28.5212548 C59.5815826,28.6996569 59.7984686,28.885895 60.013265,29.0793598 C60.2278873,29.273347 60.4191754,29.4780435 60.5868681,29.6927529 C60.7546479,29.9074622 60.8910832,30.13558 60.9962612,30.3765839 C61.1002202,30.6175877 61.1527222,30.8793137 61.1527222,31.1621972 C61.1527222,31.5296236 61.0566863,31.8644866 60.8620026,32.1687017" id="Fill-11" fill="#1F3A53" sketch:type="MSShapeGroup"></path>
            <path d="M67.5206044,32.8682049 C67.2577465,33.2714161 66.9255826,33.6202971 66.5218489,33.9133675 C66.1182023,34.2068732 65.6731114,34.4322049 65.1854443,34.5892753 C64.6978643,34.7464328 64.2349245,34.8253163 63.794274,34.8253163 C63.5739923,34.8253163 63.3491831,34.8012855 63.1188015,34.7541818 C62.88842,34.7072522 62.6781511,34.6285429 62.4903457,34.518315 C62.3013214,34.4086965 62.1469501,34.2672113 62.0261869,34.0939462 C61.9054238,33.9212036 61.8450858,33.703621 61.8450858,33.4419821 C61.8450858,33.2529577 61.8629347,33.0751652 61.8998515,32.9073854 C61.9366812,32.7396056 61.9758617,32.5768758 62.0183508,32.4197183 C62.0395954,32.3364814 62.0575314,32.2497618 62.0732036,32.1603431 C62.0887887,32.0713598 62.1067247,31.9853367 62.1280563,31.9014033 C62.1380691,31.8695365 62.1626223,31.8567375 62.1995391,31.8617004 C62.2353239,31.8673598 62.2543918,31.8858182 62.2543918,31.9170755 L62.2543918,32.0898182 C62.2543918,32.4147554 62.3091575,32.7026889 62.4186889,32.954315 C62.5295262,33.2059411 62.6837234,33.4156876 62.8829347,33.5834673 C63.0818848,33.751073 63.3122663,33.8791498 63.5739923,33.9681332 C63.8367631,34.0575519 64.1241741,34.1017823 64.4395339,34.1017823 C64.7012599,34.1017823 64.9685583,34.0575519 65.2402971,33.9681332 C65.5131677,33.8791498 65.7592215,33.7539462 65.9795903,33.5912164 C66.1997849,33.4284866 66.3799283,33.2294494 66.5218489,32.9934955 C66.6628988,32.758064 66.7344686,32.4986889 66.7344686,32.2157183 C66.7344686,31.9539923 66.6684712,31.6839078 66.5375211,31.4059872 C66.4067452,31.1286761 66.233306,30.8535416 66.0186837,30.5806709 C65.8038873,30.3083227 65.5600973,30.0360615 65.2882714,29.7631908 C65.0155749,29.4908425 64.7381767,29.2235442 64.4552061,28.9619052 C64.1610909,28.6790218 63.8681076,28.393265 63.5739923,28.1047222 C63.281009,27.8167017 63.019283,27.5209321 62.7888143,27.2168041 C62.557388,26.9131114 62.3694955,26.6039334 62.2230474,26.289096 C62.0754673,25.9748681 62.0026786,25.6606402 62.0026786,25.3463252 C62.0026786,24.8644046 62.1380691,24.4500487 62.4109398,24.1043892 C62.6837234,23.7582945 63.019283,23.475411 63.4173572,23.2556517 C63.8154315,23.035283 64.247201,22.8759488 64.7147554,22.7759078 C65.179872,22.6763892 65.6125992,22.6265864 66.0108476,22.6265864 C66.55537,22.6265864 67.069767,22.6948476 67.5519488,22.8311959 C67.5832061,22.8311959 67.5988784,22.8519181 67.5988784,22.8938848 C67.5675339,23.2293572 67.5328809,23.5648297 67.4959641,23.8997798 C67.4602663,24.2352522 67.4153393,24.5708118 67.3628374,24.9062843 C67.3628374,24.9270064 67.3605736,24.9454648 67.3550013,24.9610499 C67.3493419,24.9767222 67.3471652,24.9951805 67.3471652,25.0159027 C67.3471652,25.0477695 67.3282714,25.0657055 67.2923995,25.0711908 C67.2554827,25.0763278 67.2320615,25.0634417 67.2208297,25.0314878 C67.1682407,24.7804712 67.08779,24.5445173 66.9781716,24.3241485 C66.8674213,24.1043892 66.731073,23.9131882 66.5688656,23.7505455 C66.4067452,23.588338 66.2176338,23.457475 66.0030115,23.357347 C65.7883022,23.2584379 65.5499974,23.2081127 65.2882714,23.2081127 C65.0155749,23.2081127 64.761685,23.2556517 64.525644,23.349598 C64.2897772,23.4440666 64.0849936,23.5726658 63.9128604,23.7347862 C63.7394213,23.8976031 63.603073,24.093767 63.5034673,24.3241485 C63.4039488,24.5551396 63.3547554,24.8067657 63.3547554,25.0790269 C63.3547554,25.3619974 63.4140487,25.6265096 63.5348988,25.8725634 C63.655662,26.1191396 63.81221,26.3601434 64.0068067,26.5960973 C64.2001844,26.8315288 64.4261255,27.0624328 64.6822791,27.2877644 C64.9394776,27.513096 65.2033803,27.7356415 65.476251,27.9554008 C65.7692343,28.2070269 66.0634366,28.4614392 66.35642,28.7181152 C66.6504481,28.9747042 66.9121741,29.2448758 67.1425557,29.5277593 C67.3730243,29.8107298 67.5596978,30.1143355 67.7005736,30.4391857 C67.8426684,30.7641229 67.9131063,31.1208399 67.9131063,31.508379 C67.9131063,32.0110218 67.7821562,32.4644712 67.5206044,32.8682049" id="Fill-12" fill="#1F3A53" sketch:type="MSShapeGroup"></path>
            <path d="M13.4359641,37.7262433 L13.4359641,39.6062125 L13.2000102,39.6062125 L13.2000102,35.4107606 L13.4359641,35.4107606 L13.4359641,37.4902023 L15.1929065,37.4902023 L15.1929065,35.4107606 L15.4288604,35.4107606 L15.4288604,39.6062125 L15.1929065,39.6062125 L15.1929065,37.7262433 L13.4359641,37.7262433" id="Fill-13" fill="#E2822D" sketch:type="MSShapeGroup"></path>
            <path d="M18.8397439,35.5918617 C18.3118515,35.5918617 17.8611882,35.7786223 17.4887119,36.1515339 C17.1152778,36.5251421 16.9285173,36.975283 16.9285173,37.5031754 C16.9285173,38.0309808 17.1152778,38.4821665 17.4887119,38.8562971 C17.8611882,39.2304277 18.3118515,39.4171012 18.8397439,39.4171012 C19.3675493,39.4171012 19.8182996,39.2304277 20.1906889,38.8562971 C20.56421,38.4821665 20.7508835,38.0309808 20.7508835,37.5031754 C20.7508835,36.975283 20.56421,36.5251421 20.1906889,36.1515339 C19.8182996,35.7786223 19.3675493,35.5918617 18.8397439,35.5918617 L18.8397439,35.5918617 Z M20.3617772,35.9811421 C20.7822279,36.4015058 20.9924968,36.9092855 20.9924968,37.5031754 C20.9924968,38.0975006 20.7822279,38.6052804 20.3617772,39.0251216 C19.9412394,39.4456594 19.4346786,39.6558412 18.8397439,39.6558412 C18.2448092,39.6558412 17.7382484,39.4456594 17.3176236,39.0251216 C16.8971729,38.6052804 16.686904,38.0975006 16.686904,37.5031754 C16.686904,36.9092855 16.8971729,36.4015058 17.3176236,35.9811421 C17.7382484,35.5611268 18.2448092,35.3509449 18.8397439,35.3509449 C19.4346786,35.3509449 19.9412394,35.5611268 20.3617772,35.9811421 L20.3617772,35.9811421 Z" id="Fill-14" fill="#E2822D" sketch:type="MSShapeGroup"></path>
            <path d="M22.5201024,35.4107606 L24.0958566,38.1378131 L25.669347,35.4107606 L25.9389091,35.4107606 L25.9288092,35.4291319 L25.9288092,39.6062125 L25.6928553,39.6062125 L25.6928553,35.838525 L24.0958566,38.6018848 L22.4966812,35.838525 L22.4966812,39.6062125 L22.2606402,39.6062125 L22.2606402,35.4291319 L22.2506274,35.4107606 L22.5201024,35.4107606" id="Fill-15" fill="#E2822D" sketch:type="MSShapeGroup"></path>
            <g id="Group-19">
                <mask id="mask-4" sketch:name="Clip 17" fill="white">
                    <use xlink:href="#path-3"></use>
                </mask>
                <g id="Clip-17"></g>
                <path d="M29.3609373,35.4107606 L29.3609373,35.6466274 L27.4977721,35.6466274 L27.4977721,37.3907708 L29.3609373,37.3907708 L29.3609373,37.6268118 L27.4977721,37.6268118 L27.4977721,39.3701716 L29.3609373,39.3701716 L29.3609373,39.6062125 L27.2629501,39.6062125 L27.2629501,35.4107606 L29.3609373,35.4107606" id="Fill-16" fill="#E2822D" sketch:type="MSShapeGroup" mask="url(#mask-4)"></path>
                <path d="M32.7897567,35.4107606 L34.1003892,39.0133675 L35.4111088,35.4107606 L35.6637798,35.4107606 L34.1003892,39.7029449 L32.5392625,35.4107606 L32.7897567,35.4107606" id="Fill-18" fill="#E2822D" sketch:type="MSShapeGroup" mask="url(#mask-4)"></path>
            </g>
            <path d="M38.520041,37.7631601 L37.8803534,36.0034315 L37.2407529,37.7631601 L38.520041,37.7631601 L38.520041,37.7631601 Z M38.6061511,37.999201 L37.1535109,37.999201 L36.568589,39.6062125 L36.3169629,39.6062125 L37.8803534,35.3140282 L39.4404353,39.6062125 L39.191073,39.6062125 L38.6061511,37.999201 L38.6061511,37.999201 Z" id="Fill-20" fill="#E2822D" sketch:type="MSShapeGroup"></path>
            <path d="M40.5017055,39.6062125 L40.5017055,35.4107606 L40.7377465,35.4107606 L40.7377465,39.3701716 L42.3626069,39.3701716 L42.3626069,39.6062125 L40.5017055,39.6062125" id="Fill-21" fill="#E2822D" sketch:type="MSShapeGroup"></path>
            <path d="M45.9356978,35.4107606 L46.1750474,35.4107606 L46.1750474,38.426356 C46.1314264,38.7460691 45.9971677,39.0179821 45.7735775,39.2415723 C45.5061921,39.5094802 45.1830832,39.6431293 44.8061665,39.6431293 C44.427073,39.6431293 44.1038771,39.5094802 43.8354469,39.2415723 C43.5682356,38.974274 43.4351088,38.6516876 43.4351088,38.2741613 L43.4351088,35.4107606 L43.6734136,35.4107606 L43.6734136,38.2741613 C43.6734136,38.5849936 43.7840768,38.8513342 44.0054904,39.0727478 C44.2257721,39.2936389 44.4930704,39.4043892 44.8061665,39.4043892 C45.1193496,39.4043892 45.385516,39.2936389 45.6057977,39.0727478 C45.8260794,38.8513342 45.9356978,38.5849936 45.9356978,38.2741613 L45.9356978,35.4107606" id="Fill-22" fill="#E2822D" sketch:type="MSShapeGroup"></path>
            <path d="M49.5960307,35.4107606 L49.5960307,35.6466274 L47.7351293,35.6466274 L47.7351293,37.3907708 L49.5960307,37.3907708 L49.5960307,37.6268118 L47.7351293,37.6268118 L47.7351293,39.3701716 L49.5960307,39.3701716 L49.5960307,39.6062125 L47.4990883,39.6062125 L47.4990883,35.4107606 L49.5960307,35.4107606" id="Fill-23" fill="#E2822D" sketch:type="MSShapeGroup"></path>
            <path d="M51.8975826,37.2827196 C51.5989398,37.1832881 51.3628988,37.0468528 51.1896338,36.8741101 C51.0163688,36.7006709 50.9300845,36.4910115 50.9300845,36.2450448 C50.9300845,36.0034315 51.0163688,35.7959488 51.1896338,35.6221613 C51.3628988,35.4481997 51.5720359,35.3609577 51.8180896,35.3609577 C52.0630115,35.3609577 52.2732804,35.4476773 52.4476773,35.6209424 C52.5438873,35.7133214 52.6110166,35.8171933 52.6468015,35.9329936 L52.434356,36.0168399 C52.4029245,35.9313393 52.3515544,35.8524558 52.2799846,35.780799 C52.1524302,35.6551601 51.998233,35.5918617 51.8180896,35.5918617 C51.6380333,35.5918617 51.4847939,35.6551601 51.3573265,35.7820179 C51.2299462,35.9088758 51.1661255,36.0633342 51.1661255,36.2450448 C51.1661255,36.4250141 51.2299462,36.578863 51.3573265,36.7062433 C51.4759129,36.8232625 51.6402971,36.9310525 51.8505659,37.0290038 C52.1860384,37.1368809 52.4678771,37.3057055 52.6971268,37.5349552 C52.9397849,37.7760461 53.061767,38.0678976 53.061767,38.4106837 C53.061767,38.7551242 52.9397849,39.04863 52.6971268,39.2912881 C52.4544686,39.5346428 52.1614853,39.6558412 51.8180896,39.6558412 C51.4759129,39.6558412 51.1829296,39.5334238 50.9401844,39.2890243 C50.7468067,39.0950371 50.630484,38.8691831 50.5913905,38.6125941 L50.8149808,38.5309245 C50.8384891,38.7585198 50.9357439,38.9569475 51.1057875,39.1262945 C51.3025608,39.3237644 51.5407785,39.4227606 51.8180896,39.4227606 C52.0987964,39.4227606 52.336927,39.3237644 52.5349193,39.1262945 C52.7318668,38.9290858 52.8302535,38.6902586 52.8302535,38.4106837 C52.8302535,38.1326761 52.7318668,37.8951549 52.5349193,37.6971626 C52.3616543,37.52442 52.1491216,37.3863303 51.8975826,37.2827196" id="Fill-24" fill="#E2822D" sketch:type="MSShapeGroup"></path>
            <path d="M55.5734136,21.5999693 C55.5734136,9.87767478 45.4223457,0.0609475032 34.4404763,0.0609475032 C23.4584328,0.0609475032 14.0599795,8.75371575 13.8497106,21.2074673 L34.1070935,17.9425096 L55.5734136,21.5999693" id="Fill-25" fill="#E2802D" sketch:type="MSShapeGroup"></path>
            <path d="M54.1240819,14.449347 L50.7109347,13.0358003 L50.7109347,11.9370038 L49.672041,11.9370038 L49.672041,12.6052497 L47.1580435,11.5640922 L47.1580435,11.5634827 L47.1557798,11.5634827 L47.1557798,11.5640922 L40.1908732,14.449347 L40.9926812,14.4650192 L40.9926812,19.3018131 L53.3211421,20.3026581 L53.3211421,14.4650192 L54.1240819,14.449347" id="Fill-26" fill="#FFFFFF" sketch:type="MSShapeGroup"></path>
            <path d="M14.7578284,14.449347 L18.1709757,13.0358003 L18.1709757,11.9370038 L19.2088246,11.9370038 L19.2088246,12.6052497 L21.7239539,11.5640922 L21.7239539,11.5634827 L21.7249987,11.5634827 L21.7249987,11.5640922 L28.6899923,14.449347 L27.8892292,14.4650192 L27.8892292,19.3018131 L15.5608553,20.7511447 L15.5608553,14.4650192 L14.7578284,14.449347" id="Fill-27" fill="#FFFFFF" sketch:type="MSShapeGroup"></path>
            <path d="M45.7982177,11.6881639 L40.2567836,9.39392574 L40.2567836,7.61077593 L38.5703662,7.61077593 L38.5703662,8.69503201 L34.4895826,7.00469654 L34.4895826,7.00295519 L34.4895826,7.00356466 L34.4874059,7.00295519 L34.4874059,7.00469654 L23.1799898,11.6881639 L24.4817414,11.7134136 L24.4817414,19.5651933 L44.4952471,19.5651933 L44.4952471,11.7134136 L45.7982177,11.6881639" id="Fill-28" fill="#FFFFFF" sketch:type="MSShapeGroup"></path>
            <path d="M32.3915954,12.7092958 L34.2547606,12.7092958 L34.2547606,14.5723739 L32.3915954,14.5723739 L32.3915954,12.7092958 Z" id="Fill-29" fill="#E2802D" sketch:type="MSShapeGroup"></path>
            <path d="M34.6271498,12.7092958 L36.490315,12.7092958 L36.490315,14.5723739 L34.6271498,14.5723739 L34.6271498,12.7092958 Z" id="Fill-30" fill="#E2802D" sketch:type="MSShapeGroup"></path>
            <path d="M32.3915954,14.9140282 L34.2547606,14.9140282 L34.2547606,16.7771933 L32.3915954,16.7771933 L32.3915954,14.9140282 Z" id="Fill-31" fill="#E2802D" sketch:type="MSShapeGroup"></path>
            <path d="M34.6271498,14.9140282 L36.490315,14.9140282 L36.490315,16.7771933 L34.6271498,16.7771933 L34.6271498,14.9140282 Z" id="Fill-32" fill="#E2802D" sketch:type="MSShapeGroup"></path>
            <path d="M23.7033547,12.2608092 L24.4817414,12.2608092 L24.4817414,18.508886 L23.7033547,18.508886 L23.7033547,12.2608092 Z" id="Fill-33" fill="#E2802D" sketch:type="MSShapeGroup"></path>
            <path d="M44.4964661,12.2608092 L45.2747657,12.2608092 L45.2747657,18.508886 L44.4964661,18.508886 L44.4964661,12.2608092 Z" id="Fill-34" fill="#E2802D" sketch:type="MSShapeGroup"></path>
            <path d="M8.22347247,22.9604046 C8.22347247,22.9604046 8.41240973,22.8770807 8.76590525,22.7210551 C9.12366709,22.5728656 9.64485531,22.3475339 10.3247682,22.1015672 C11.6801536,21.5977055 13.6439693,20.9434776 16.0517439,20.3351344 C17.2538899,20.025347 18.5668732,19.7300999 19.9647478,19.459493 C21.3626223,19.1988988 22.8432983,18.9338643 24.3866633,18.7493675 C25.9265455,18.5458028 27.5258079,18.3886453 29.1551088,18.2779821 C30.7845839,18.1884763 32.4419206,18.1185608 34.1003892,18.1208246 C34.930233,18.1230883 35.7600768,18.1331012 36.585306,18.1700179 C36.9980948,18.1856901 37.4095775,18.2007529 37.8211472,18.2159027 C38.2315851,18.2415877 38.6397593,18.2672727 39.0479334,18.2930448 C39.4549757,18.3209936 39.860886,18.3383201 40.2634878,18.3758464 C40.6661767,18.4160717 41.0664277,18.4557746 41.464589,18.4954776 C42.2620435,18.5659155 43.0448707,18.6710935 43.8153342,18.7722663 C44.5870166,18.8656901 45.3429398,18.9780077 46.0788374,19.1093931 C46.4479181,19.1720819 46.8123841,19.2335519 47.1725839,19.2944994 C47.5303457,19.3655467 47.8849731,19.4353752 48.233854,19.5047682 C49.6339923,19.7637081 50.9391396,20.0963073 52.1445941,20.3899001 C53.3413419,20.7192778 54.4395288,21.0116517 55.3967529,21.3270986 C56.353977,21.6413265 57.1939206,21.8973931 57.8683483,22.1568553 C59.2192061,22.6679437 59.9908886,22.9604046 59.9908886,22.9604046 C59.9908886,22.9604046 59.1934341,22.7490038 57.8000871,22.3800102 C57.1078105,22.1814955 56.248886,22.0070115 55.2782535,21.7598259 C54.7939821,21.6340128 54.271662,21.5283995 53.7215672,21.414863 C53.173475,21.2980179 52.5964763,21.174991 51.9948374,21.0469142 C50.7825045,20.8277644 49.4751805,20.5733521 48.0817465,20.3676108 C47.7339104,20.3132804 47.3817209,20.2585147 47.0250038,20.2031396 C46.6670679,20.1578643 46.3036466,20.1119795 45.9379616,20.0655723 C45.5711447,20.0175109 45.2009321,19.9694494 44.827411,19.920169 C44.4538899,19.87263 44.0747964,19.8397183 43.6934392,19.7977516 C42.9296799,19.7172138 42.1546018,19.6328451 41.3662894,19.5836517 C40.5800666,19.5242714 39.7837439,19.4606248 38.9786274,19.4237081 C38.5770704,19.401854 38.1734238,19.3794776 37.7685583,19.3577106 C37.3636927,19.3459565 36.9566504,19.3342023 36.5496082,19.3229706 C35.7354366,19.2922356 34.9179565,19.2911908 34.1003892,19.2933675 C32.4654289,19.2771729 30.8293367,19.332548 29.2201485,19.4074264 C27.6140948,19.5119949 26.0305915,19.6021101 24.5051626,19.772589 C22.977557,19.9274827 21.5057618,20.1175519 20.1123278,20.3194622 C18.7211575,20.5380896 17.4060845,20.752799 16.1982791,20.9893624 C13.7826684,21.458484 11.7853316,21.9449321 10.396338,22.3223713 C9.00516773,22.6970243 8.22347247,22.9604046 8.22347247,22.9604046" id="Fill-35" fill="#1F3A53" sketch:type="MSShapeGroup"></path>
        </g>
    </g>
</svg>