<?xml version="1.0" encoding="UTF-8" standalone="no"?>
<svg width="152px" height="152px" viewBox="0 0 152 152" version="1.1" xmlns="http://www.w3.org/2000/svg" xmlns:xlink="http://www.w3.org/1999/xlink" xmlns:sketch="http://www.bohemiancoding.com/sketch/ns">
    <!-- Generator: Sketch 3.4.4 (17249) - http://www.bohemiancoding.com/sketch -->
    <title>Our System Goes to Work</title>
    <desc>Created with Sketch.</desc>
    <defs></defs>
    <g id="Icons" stroke="none" stroke-width="1" fill="none" fill-rule="evenodd" sketch:type="MSPage">
        <g id="Our-System-Goes-to-Work" sketch:type="MSLayerGroup" transform="translate(1.000000, 1.000000)">
            <circle id="Oval-1-Copy" stroke="#FFFFFF" fill="#E67E22" sketch:type="MSShapeGroup" cx="75" cy="75" r="75"></circle>
            <path d="M108.836066,49.2439024 L40.1639344,49.2439024 L40.1639344,33.4390244 C40.1639344,30.534439 42.513918,28.1707317 45.4016393,28.1707317 L103.598361,28.1707317 C106.486082,28.1707317 108.836066,30.534439 108.836066,33.4390244 L108.836066,49.2439024 Z M108.836066,86.7073171 L75.0819672,86.7073171 L75.0819672,50.4146341 L108.836066,50.4146341 L108.836066,86.7073171 Z M108.836066,116.560976 C108.836066,119.465561 106.486082,121.829268 103.598361,121.829268 L75.0819672,121.829268 L75.0819672,87.8780488 L108.836066,87.8780488 L108.836066,116.560976 Z M73.9180328,86.7073171 L40.1639344,86.7073171 L40.1639344,50.4146341 L73.9180328,50.4146341 L73.9180328,86.7073171 Z M73.9180328,121.829268 L45.4016393,121.829268 C42.513918,121.829268 40.1639344,119.465561 40.1639344,116.560976 L40.1639344,87.8780488 L73.9180328,87.8780488 L73.9180328,121.829268 Z M103.598361,27 L45.4016393,27 C41.8725902,27 39,29.8881951 39,33.4390244 L39,49.2439024 L39,50.4146341 L39,86.7073171 L39,87.8780488 L39,116.560976 C39,120.111805 41.8725902,123 45.4016393,123 L73.9180328,123 L75.0819672,123 L103.598361,123 C107.12741,123 110,120.111805 110,116.560976 L110,33.4390244 C110,29.8881951 107.12741,27 103.598361,27 L103.598361,27 Z M95.7077,78.6528 C93.9617984,78.6528 92.5406344,77.2233366 92.5406344,75.467239 C92.5406344,73.7123122 93.9617984,72.2840195 95.7077,72.2840195 C97.4524377,72.2840195 98.8724377,73.7123122 98.8724377,75.467239 C98.8724377,77.2233366 97.4524377,78.6528 95.7077,78.6528 M95.7077,71.1132878 C93.3193066,71.1132878 91.3767,73.0660683 91.3767,75.467239 C91.3767,77.8695805 93.3193066,79.8235317 95.7077,79.8235317 C98.0949295,79.8235317 100.036372,77.8695805 100.036372,75.467239 C100.036372,73.0660683 98.0949295,71.1132878 95.7077,71.1132878 M87.560159,58.2347707 C89.3048967,58.2347707 90.7248967,59.6630634 90.7248967,61.419161 C90.7248967,63.1752585 89.3048967,64.6035512 87.560159,64.6035512 C85.8142574,64.6035512 84.3930934,63.1752585 84.3930934,61.419161 C84.3930934,59.6630634 85.8142574,58.2347707 87.560159,58.2347707 M87.560159,65.7742829 C89.9473885,65.7742829 91.8888311,63.8203317 91.8888311,61.419161 C91.8888311,59.0168195 89.9473885,57.064039 87.560159,57.064039 C85.1717656,57.064039 83.229159,59.0168195 83.229159,61.419161 C83.229159,63.8203317 85.1717656,65.7742829 87.560159,65.7742829 M96.3146918,62.523278 L97.961659,64.1798634 L86.4398721,75.7689366 L84.7940689,74.1123512 L96.3146918,62.523278 Z M99.6074623,64.1798634 L96.3146918,60.8678634 L83.1471016,74.1123512 L86.4398721,77.425522 L99.6074623,64.1798634 Z M99.5245902,108.95122 L83.2295082,108.95122 L83.2295082,106.609756 L99.5245902,106.609756 L99.5245902,108.95122 Z M100.688525,105.439024 L82.0655738,105.439024 L82.0655738,110.121951 L100.688525,110.121951 L100.688525,105.439024 Z M99.5245902,101.926829 L83.2295082,101.926829 L83.2295082,99.5853659 L99.5245902,99.5853659 L99.5245902,101.926829 Z M100.688525,98.4146341 L82.0655738,98.4146341 L82.0655738,103.097561 L100.688525,103.097561 L100.688525,98.4146341 Z M56.3180639,103.440585 L52.2035557,99.3020488 L53.849359,97.6454634 L57.9638672,101.785171 L58.7867689,102.612878 L63.7241787,97.6454634 L65.369982,99.3020488 L60.4325721,104.268293 L61.2554738,105.096 L65.369982,109.234537 L63.7241787,110.891122 L59.6096705,106.751415 L58.7867689,105.923707 L57.9638672,106.751415 L53.849359,110.891122 L52.2035557,109.234537 L57.1409656,104.268293 L56.3180639,103.440585 Z M53.849359,112.546537 L58.7867689,107.579122 L63.7241787,112.546537 L67.0157852,109.234537 L62.0783754,104.268293 L67.0157852,99.3020488 L63.7241787,95.9900488 L58.7867689,100.957463 L53.849359,95.9900488 L50.5577525,99.3020488 L55.4951623,104.268293 L50.5577525,109.234537 L53.849359,112.546537 Z M50.6393443,70.3170732 L50.6393443,67.9756098 L56.4590164,67.9756098 L57.6229508,67.9756098 L57.6229508,60.9512195 L59.9508197,60.9512195 L59.9508197,67.9756098 L61.1147541,67.9756098 L66.9344262,67.9756098 L66.9344262,70.3170732 L61.1147541,70.3170732 L59.9508197,70.3170732 L59.9508197,71.4878049 L59.9508197,77.3414634 L57.6229508,77.3414634 L57.6229508,70.3170732 L56.4590164,70.3170732 L50.6393443,70.3170732 Z M56.4590164,78.5121951 L61.1147541,78.5121951 L61.1147541,71.4878049 L68.0983607,71.4878049 L68.0983607,66.804878 L61.1147541,66.804878 L61.1147541,59.7804878 L56.4590164,59.7804878 L56.4590164,66.804878 L49.4754098,66.804878 L49.4754098,71.4878049 L56.4590164,71.4878049 L56.4590164,78.5121951 Z" id="Calculator" fill="#FFFFFF" sketch:type="MSShapeGroup"></path>
        </g>
    </g>
</svg>