<?xml version="1.0" encoding="UTF-8" standalone="no"?>
<svg width="152px" height="152px" viewBox="0 0 152 152" version="1.1" xmlns="http://www.w3.org/2000/svg" xmlns:xlink="http://www.w3.org/1999/xlink" xmlns:sketch="http://www.bohemiancoding.com/sketch/ns">
    <!-- Generator: Sketch 3.4.4 (17249) - http://www.bohemiancoding.com/sketch -->
    <title>You'll Receive the Report</title>
    <desc>Created with Sketch.</desc>
    <defs></defs>
    <g id="Icons" stroke="none" stroke-width="1" fill="none" fill-rule="evenodd" sketch:type="MSPage">
        <g id="You'll-Receive-the-Report" sketch:type="MSLayerGroup" transform="translate(1.000000, 1.000000)">
            <path d="M75,150 C116.421356,150 150,116.421356 150,75 C150,33.5786438 116.421356,0 75,0 C33.5786438,0 0,33.5786438 0,75 C0,116.421356 33.5786438,150 75,150 Z" id="Oval-1-Copy" stroke="#FFFFFF" fill="#E67E22" sketch:type="MSShapeGroup"></path>
            <path d="M102.290603,118.531904 C90.3666486,118.531904 80.6664856,108.792707 80.6664856,96.8207707 C80.6664856,96.5502677 80.6719174,96.2797648 80.6816947,96.0092619 C80.8055405,92.6203399 81.6844106,89.3993916 83.2954916,86.4347667 C85.5909832,82.2147026 89.2672461,78.8334159 93.6463878,76.9148083 C96.3775122,75.7171784 99.2846279,75.1107282 102.290603,75.1107282 C114.214557,75.1107282 123.913634,84.8499248 123.913634,96.8207707 C123.913634,108.792707 114.214557,118.531904 102.290603,118.531904 L102.290603,118.531904 Z M102.131993,31.0907377 L102.131993,74.0276257 C99.0336773,74.0494405 96.0320478,74.6787961 93.2118414,75.9146019 C90.4274851,77.1351373 87.9212385,78.9239471 85.8365019,81.123965 L85.8365019,31.0907377 L102.131993,31.0907377 Z M59.7637154,51.8147532 L76.059207,51.8147532 L76.059207,107.442374 L59.7637154,107.442374 L59.7637154,51.8147532 Z M34.7772949,70.3572935 L51.0727865,70.3572935 L51.0727865,107.442374 L34.7772949,107.442374 L34.7772949,70.3572935 Z M103.21836,74.0668923 L103.21836,30 L84.7501358,30 L84.7501358,82.3554078 L84.7577404,82.3554078 C83.8484519,83.4625065 83.0304183,84.6470476 82.3427485,85.9123033 C80.6501901,89.0263593 79.7256926,92.4098276 79.5953286,95.9689046 C79.5855513,96.2514056 79.5801195,96.5360881 79.5801195,96.8207707 C79.5801195,100.655804 80.5382944,104.267237 82.2112982,107.442374 L77.1455731,107.442374 L77.1455731,50.7240156 L58.6773493,50.7240156 L58.6773493,107.442374 L52.1591526,107.442374 L52.1591526,69.2665558 L33.6909288,69.2665558 L33.6909288,107.442374 L25,107.442374 L25,108.533112 L33.6909288,108.533112 L52.1591526,108.533112 L58.6773493,108.533112 L77.1455731,108.533112 L82.5774036,108.533112 L82.5774036,108.098998 C86.4948398,114.970645 93.8549701,119.622642 102.290603,119.622642 C114.812059,119.622642 125,109.393704 125,96.8207707 C125,84.5630608 115.308528,74.5609965 103.21836,74.0668923 L103.21836,74.0668923 Z M112.996198,86.8365944 L112.996198,86.7187947 L112.996198,85.6280571 L94.5279739,85.6280571 L94.5279739,86.7187947 L111.909832,86.7187947 L111.909832,86.83005 L91.4915807,107.330464 L92.2596415,108.101616 L111.909832,88.372353 L111.909832,103.07986 L112.996198,103.07986 L112.996198,87.2816154 L113.217816,87.0591049 L112.996198,86.8365944 Z" id="Chart-Up" fill="#FFFFFF" sketch:type="MSShapeGroup"></path>
        </g>
    </g>
</svg>