<?xml version="1.0" encoding="UTF-8" standalone="no"?>
<svg width="152px" height="152px" viewBox="0 0 152 152" version="1.1" xmlns="http://www.w3.org/2000/svg" xmlns:xlink="http://www.w3.org/1999/xlink" xmlns:sketch="http://www.bohemiancoding.com/sketch/ns">
    <!-- Generator: Sketch 3.4.4 (17249) - http://www.bohemiancoding.com/sketch -->
    <title>Tell Us About You</title>
    <desc>Created with Sketch.</desc>
    <defs></defs>
    <g id="Icons" stroke="none" stroke-width="1" fill="none" fill-rule="evenodd" sketch:type="MSPage">
        <g id="Tell-Us-About-You" sketch:type="MSLayerGroup" transform="translate(1.000000, 1.000000)">
            <circle id="Oval-1" stroke="#FFFFFF" fill="#E67E22" sketch:type="MSShapeGroup" cx="75" cy="75" r="75"></circle>
            <path d="M53.4261284,51.9754936 C54.340877,49.9909308 55.6810026,49.4386173 55.7324494,49.4172779 L56.1226919,49.2704127 L56.1377495,48.8524118 C56.1402591,48.7620332 56.4627425,39.7768967 58.7251454,35.5052539 C60.9072412,31.3804762 70.2981584,29.8227011 70.3922683,29.8063827 L71.1426383,29.685878 L70.0208478,26.6017092 C73.7639138,27.3021431 86.3106509,29.9042929 90.4150991,34.0152627 L91.1127675,34.7106756 C95.1632593,39.2848356 94.9825682,48.7155887 94.9800586,48.8160093 L94.977549,49.2139261 L95.3288928,49.393428 C95.3389311,49.398449 96.4280968,49.9758677 97.3503743,51.9754936 C97.789554,52.9307449 97.4934214,53.6098395 96.8873534,54.8261844 C96.4255872,55.7500543 95.852144,56.8998706 95.7065873,58.4651773 C95.4556275,61.1953633 92.7138912,61.5518566 92.5971949,61.5669197 L92.1868756,61.6146195 L92.0676696,62.0075152 C92.0162229,62.1782303 86.7473211,79.110405 75.6097234,79.110405 C64.4608326,79.110405 58.7452222,62.1644225 58.6887563,61.9937074 L58.5620215,61.6133642 L58.1642502,61.5669197 C58.0488087,61.5518566 55.309582,61.1953633 55.0586222,58.4651773 C54.9143203,56.9023811 54.3433866,55.7538201 53.8841301,54.8299502 C53.2805717,53.61235 52.9844391,52.9320002 53.4261284,51.9754936 M53.8088422,58.580661 C54.059802,61.3095918 56.2230758,62.4481108 57.6221769,62.7481174 C58.5482187,65.3603092 64.3629582,80.3656629 75.6097234,80.3656629 C86.8502146,80.3656629 92.2784759,65.392946 93.1493065,62.7456069 C94.5484077,62.4430897 96.7066623,61.3033155 96.9563673,58.580661 C97.0793376,57.2500876 97.5737285,56.2609443 98.0091438,55.3872847 C98.6239954,54.1583872 99.2024579,52.9972736 98.4897319,51.4495405 C97.6816412,49.6959451 96.7443062,48.8461355 96.2386222,48.4858765 C96.239877,46.5138662 95.9838979,37.3027833 91.2758914,33.0964139 L91.2194254,33.0462035 C91.0211671,32.8528938 90.8053417,32.6620946 90.5757134,32.4750612 L90.2306436,32.1700335 L90.2306436,32.2051807 C84.2339583,27.6887626 69.8112963,25.2799225 69.1600555,25.1719703 L68.1022598,25 L69.451169,28.7042662 C67.0620313,29.1787538 59.7227108,30.9373702 57.6159029,34.9177932 C55.4639223,38.9823184 54.9833342,46.6356262 54.8992627,48.4369214 C54.2944495,48.7808621 53.1199574,49.6432243 52.2867708,51.4495405 C51.57279,52.9972736 52.1499976,54.1583872 52.7610849,55.38854 C53.1939906,56.2621995 53.6858719,57.2513428 53.8088422,58.580661 M115.114692,91.1820953 C105.687386,88.5636271 91.2860552,84.6334145 91.2860552,84.6334145 L90.6574008,84.4626994 L82.4974417,119.341297 L78.1533268,99.6726601 L82.3004382,86.4773884 L75.1731788,86.1937001 L75.1731788,86.183658 L75.1731788,86.1886791 L75.1731788,86.183658 L75.1731788,86.1937001 L67.8702474,86.4773884 L71.9169748,99.6726601 L67.5352161,119.341297 L59.3551801,84.4626994 L58.7189969,84.6334145 C58.7189969,84.6334145 44.3113926,88.5636271 34.885341,91.1820953 C25.1117101,93.8984735 24.9975233,99.662618 25.0000329,99.968901 L27.355291,124.064833 L28.6038162,123.943073 L26.2498129,99.9073933 C26.2498129,99.857183 26.3527065,94.85498 35.2153532,92.3921639 C43.4706771,90.0975524 55.5431002,86.7987344 58.4115711,86.0154535 L67.5314517,125 L73.1027601,99.7806123 L73.1378945,99.6174288 L69.4048669,87.667373 L74.9962521,87.443937 L80.5888921,87.667373 L76.8571193,99.6174288 L82.4635621,125 L91.5834426,86.0154535 C94.4506588,86.7987344 106.523082,90.0975524 114.778406,92.3921639 C123.569529,94.8348959 123.742691,99.7052968 123.74771,99.8458857 L121.391198,123.943073 L122.640978,124.064833 L125,99.9073933 C125,99.662618 124.887068,93.8984735 115.114692,91.1820953 M93.9946648,112.393319 L110.307054,112.393319 L110.307054,111.138061 L93.9946648,111.138061 L93.9946648,112.393319 Z" id="User" fill="#FFFFFF" sketch:type="MSShapeGroup"></path>
        </g>
    </g>
</svg>